<?xml version="1.0" encoding="UTF-8" standalone="no"?>
<!-- Created with Inkscape (http://www.inkscape.org/) -->

<svg
   xmlns:dc="http://purl.org/dc/elements/1.1/"
   xmlns:cc="http://creativecommons.org/ns#"
   xmlns:rdf="http://www.w3.org/1999/02/22-rdf-syntax-ns#"
   xmlns:svg="http://www.w3.org/2000/svg"
   xmlns="http://www.w3.org/2000/svg"
   xmlns:sodipodi="http://sodipodi.sourceforge.net/DTD/sodipodi-0.dtd"
   xmlns:inkscape="http://www.inkscape.org/namespaces/inkscape"
   width="900"
   height="650"
   viewBox="0 0 238.12501 171.97917"
   version="1.1"
   id="svg8"
   inkscape:version="0.92.2 5c3e80d, 2017-08-06"
   sodipodi:docname="affiliate.svg">
  <defs
     id="defs2" />
  <sodipodi:namedview
     id="base"
     pagecolor="#ffffff"
     bordercolor="#666666"
     borderopacity="1.0"
     inkscape:pageopacity="0.0"
     inkscape:pageshadow="2"
     inkscape:zoom="1.0236842"
     inkscape:cx="414.34297"
     inkscape:cy="322.85714"
     inkscape:document-units="mm"
     inkscape:current-layer="layer1"
     showgrid="false"
     units="px"
     inkscape:window-width="1920"
     inkscape:window-height="955"
     inkscape:window-x="0"
     inkscape:window-y="1"
     inkscape:window-maximized="1" />
  <metadata
     id="metadata5">
    <rdf:RDF>
      <cc:Work
         rdf:about="">
        <dc:format>image/svg+xml</dc:format>
        <dc:type
           rdf:resource="http://purl.org/dc/dcmitype/StillImage" />
        <dc:title></dc:title>
      </cc:Work>
    </rdf:RDF>
  </metadata>
  <g
     inkscape:label="Layer 1"
     inkscape:groupmode="layer"
     id="layer1"
     transform="translate(0,-125.02081)">
    <rect
       id="rect10"
       width="238.125"
       height="171.97917"
       x="0.23902856"
       y="125.37936"
       style="stroke-width:0.26458332;fill:#ccb2a4;fill-opacity:1" />
    <ellipse
       style="fill:#334d5b;fill-opacity:1;stroke-width:0.52518797"
       id="path822"
       cx="117.99075"
       cy="212.48296"
       rx="67.464378"
       ry="68.233932" />
    <g
       id="g1430"
       transform="matrix(0.21560063,0,0,0.21560063,66.198887,160.56476)">
      <path
         id="path1282"
         d="M 456,208 V 80 C 456,40.232 423.768,8 384,8 v 0 c -39.768,0 -72,32.232 -72,72 v 128 z"
         style="fill:#d3a06c"
         inkscape:connector-curvature="0" />
      <path
         id="path1284"
         d="m 384,8 c -2.704,0 -5.368,0.176 -8,0.472 35.992,3.984 64,34.472 64,71.528 v 128 h 16 V 80 C 456,40.232 423.768,8 384,8 Z"
         style="fill:#b27946"
         inkscape:connector-curvature="0" />
      <path
         id="path1286"
         d="m 408,192 54.272,10.856 c 14.96,2.992 25.728,16.12 25.728,31.376 V 248 H 280 v -13.768 c 0,-15.256 10.768,-28.384 25.728,-31.376 L 360,192 Z"
         style="fill:#ececec"
         inkscape:connector-curvature="0" />
      <path
         id="path1288"
         d="m 136,192 54.272,10.856 c 14.96,2.992 25.728,16.12 25.728,31.376 V 248 H 8 V 234.232 C 8,218.976 18.768,205.848 33.728,202.856 L 88,192 Z"
         style="fill:#92e0c0"
         inkscape:connector-curvature="0" />
      <path
         id="path1290"
         d="m 192,248 h 24 v -13.768 c 0,-15.256 -10.768,-28.384 -25.728,-31.376 L 136,192 h -8 l 50.696,28.968 c 3.416,1.952 5.992,5.096 7.24,8.832 z"
         style="fill:#48c397"
         inkscape:connector-curvature="0" />
      <path
         id="path1292"
         d="m 464,248 h 24 v -13.768 c 0,-15.256 -10.768,-28.384 -25.728,-31.376 L 408,192 h -8 l 50.696,28.968 c 3.416,1.952 5.992,5.096 7.24,8.832 z"
         style="fill:#b6c1ce"
         inkscape:connector-curvature="0" />
      <path
         id="path1294"
         d="M 40,120 V 80 C 40,40.232 72.232,8 112,8 v 0 c 39.768,0 72,32.232 72,72 v 40 z"
         style="fill:#d3a06c"
         inkscape:connector-curvature="0" />
      <path
         id="path1296"
         d="m 112,8 c -2.704,0 -5.368,0.176 -8,0.472 35.992,3.984 64,34.472 64,71.528 v 40 h 16 V 80 C 184,40.232 151.768,8 112,8 Z"
         style="fill:#b27946"
         inkscape:connector-curvature="0" />
      <g
         id="g1302">
        <polygon
           id="polygon1298"
           points="136,192 112,216 88,192 88,168 136,168 "
           style="fill:#f9e0a6" />
        <polygon
           id="polygon1300"
           points="408,192 384,216 360,192 360,168 408,168 "
           style="fill:#f9e0a6" />
      </g>
      <circle
         id="circle1304"
         r="96"
         cy="392"
         cx="248"
         style="fill:#fea82f" />
      <path
         id="path1306"
         d="m 248,472 c -50.32,0 -91.52,-38.736 -95.6,-88 -0.216,2.648 -0.4,5.296 -0.4,8 0,53.016 42.984,96 96,96 53.016,0 96,-42.984 96,-96 0,-2.704 -0.184,-5.352 -0.4,-8 -4.08,49.264 -45.28,88 -95.6,88 z"
         style="fill:#ff8031"
         inkscape:connector-curvature="0" />
      <g
         id="g1318">
        <path
           id="path1308"
           d="m 424,96 h 8 c 13.256,0 24,10.744 24,24 v 0 c 0,13.256 -10.744,24 -24,24 h -8 z"
           style="fill:#f9e0a6"
           inkscape:connector-curvature="0" />
        <path
           id="path1310"
           d="m 344,96 h -8 c -13.256,0 -24,10.744 -24,24 v 0 c 0,13.256 10.744,24 24,24 h 8 z"
           style="fill:#f9e0a6"
           inkscape:connector-curvature="0" />
        <path
           id="path1312"
           d="m 152,96 h 8 c 13.256,0 24,10.744 24,24 v 0 c 0,13.256 -10.744,24 -24,24 h -8 z"
           style="fill:#f9e0a6"
           inkscape:connector-curvature="0" />
        <path
           id="path1314"
           d="m 72,96 h -8 c -13.256,0 -24,10.744 -24,24 v 0 c 0,13.256 10.744,24 24,24 h 8 z"
           style="fill:#f9e0a6"
           inkscape:connector-curvature="0" />
        <path
           id="path1316"
           d="m 112,176 v 0 C 85.488,176 64,154.512 64,128 V 96 c 0,-8.84 7.16,-16 16,-16 h 64 c 8.84,0 16,7.16 16,16 v 32 c 0,26.512 -21.488,48 -48,48 z"
           style="fill:#f9e0a6"
           inkscape:connector-curvature="0" />
      </g>
      <path
         id="path1320"
         d="m 144,80 v 48 c 0,23.776 -17.304,43.464 -40,47.28 9.568,1.608 19.864,1.104 31.704,-7.648 C 151.4,156.032 160,137.12 160,117.608 V 96 c 0,-8.84 -7.16,-16 -16,-16 z"
         style="fill:#eabd8c"
         inkscape:connector-curvature="0" />
      <path
         id="path1322"
         d="m 384,176 v 0 c -26.512,0 -48,-21.488 -48,-48 v -40 0 c 15.368,0 30.104,-6.104 40.968,-16.968 L 384,64 l 7.032,7.032 C 401.896,81.896 416.632,88 432,88 v 0 40 c 0,26.512 -21.488,48 -48,48 z"
         style="fill:#f9e0a6"
         inkscape:connector-curvature="0" />
      <path
         id="path1324"
         d="m 416,88 v 40 c 0,23.776 -17.304,43.464 -40,47.28 v 0 c 2.608,0.44 5.264,0.72 8,0.72 26.512,0 48,-21.488 48,-48 V 88 c -5.464,0 -10.84,-0.808 -16,-2.288 0,0.56 0,2.288 0,2.288 z"
         style="fill:#eabd8c"
         inkscape:connector-curvature="0" />
      <path
         id="path1326"
         d="m 248,352 c 8.824,0 16,7.176 16,16 h 16 c 0,-14.864 -10.24,-27.288 -24,-30.864 V 320 h -16 v 17.136 c -13.76,3.576 -24,16 -24,30.864 0,17.648 14.352,32 32,32 8.824,0 16,7.176 16,16 0,8.824 -7.176,16 -16,16 -8.824,0 -16,-7.176 -16,-16 h -16 c 0,14.864 10.24,27.288 24,30.864 V 464 h 16 v -17.136 c 13.76,-3.576 24,-16 24,-30.864 0,-17.648 -14.352,-32 -32,-32 -8.824,0 -16,-7.176 -16,-16 0,-8.824 7.176,-16 16,-16 z"
         inkscape:connector-curvature="0" />
      <path
         id="path1328"
         d="M 464,195.056 V 80 C 464,35.888 428.112,0 384,0 339.888,0 304,35.888 304,80 v 115.056 c -18.544,3.792 -32,20.232 -32,39.176 V 256 h 112 v 120 c 0,4.408 -3.592,8 -8,8 H 351.592 C 347.488,330.392 302.648,288 248,288 c -54.648,0 -99.488,42.392 -103.592,96 H 120 c -4.408,0 -8,-3.592 -8,-8 V 256 h 112 v -21.768 c 0,-19 -13.52,-35.496 -32.152,-39.224 L 144,185.44 v -11.552 c 8.008,-5.6 14.456,-13.24 18.648,-22.16 C 179.04,150.36 192,136.736 192,120 V 80 C 192,35.888 156.112,0 112,0 67.888,0 32,35.888 32,80 v 40 c 0,16.736 12.96,30.36 29.352,31.728 4.2,8.92 10.64,16.56 18.648,22.16 v 11.552 l -47.848,9.568 C 13.52,198.736 0,215.232 0,234.232 V 256 h 96 v 120 c 0,13.232 10.768,24 24,24 h 24.408 c 4.104,53.608 48.944,96 103.592,96 24.944,0 49.072,-8.968 67.936,-25.256 L 305.48,458.632 C 289.52,472.416 269.104,480 248,480 c -48.52,0 -88,-39.48 -88,-88 0,-48.52 39.48,-88 88,-88 48.52,0 88,39.48 88,88 0,20.288 -6.704,39.344 -19.4,55.12 l 12.472,10.032 C 342.184,440.848 350.04,420.808 351.656,400 H 376 c 13.232,0 24,-10.768 24,-24 V 256 h 96 v -21.768 c 0,-18.944 -13.456,-35.384 -32,-39.176 z M 167.672,133.952 C 167.88,131.992 168,130.008 168,128 v -21.776 c 4.76,2.776 8,7.88 8,13.776 0,6.032 -3.392,11.224 -8.328,13.952 z M 112,16 c 35.288,0 64,28.712 64,64 v 12.448 c -2.848,-1.664 -5.92,-2.984 -9.24,-3.704 C 163.664,79.072 154.688,72 144,72 H 80 c -10.688,0 -19.664,7.072 -22.76,16.752 -3.32,0.72 -6.392,2.04 -9.24,3.696 V 80 C 48,44.712 76.712,16 112,16 Z M 48,120 c 0,-5.896 3.24,-11 8,-13.776 V 128 c 0,2.008 0.12,3.992 0.328,5.952 C 51.392,131.224 48,126.032 48,120 Z m 24,8 V 96 c 0,-4.408 3.592,-8 8,-8 h 64 c 4.408,0 8,3.592 8,8 v 32 c 0,22.056 -17.944,40 -40,40 -22.056,0 -40,-17.944 -40,-40 z m 40,56 c 5.56,0 10.928,-0.84 16,-2.36 v 7.048 l -16,16 -16,-16 v -7.048 c 5.072,1.52 10.44,2.36 16,2.36 z m -96,50.232 c 0,-11.4 8.112,-21.296 19.296,-23.536 l 50.08,-10.016 26.624,26.632 26.632,-26.632 50.08,10.016 C 199.888,212.936 208,222.832 208,234.232 V 240 H 16 Z m 336,-48.792 -32,6.4 v -44.296 c 3.992,2.328 8.504,3.776 13.352,4.184 4.2,8.92 10.64,16.56 18.648,22.16 z M 328.328,133.952 C 323.392,131.224 320,126.032 320,120 c 0,-5.896 3.24,-11 8,-13.776 V 128 c 0,2.008 0.12,3.992 0.328,5.952 z M 384,168 c -22.056,0 -40,-17.944 -40,-40 V 95.52 c 14.584,-1.752 28.08,-8.288 38.624,-18.832 l 1.376,-1.376 1.376,1.376 C 395.92,87.232 409.416,93.768 424,95.52 V 128 c 0,22.056 -17.944,40 -40,40 z m -16,13.64 c 5.072,1.52 10.44,2.36 16,2.36 5.56,0 10.928,-0.84 16,-2.36 v 7.048 l -16,16 -16,-16 z m 48,-7.752 c 8.008,-5.6 14.456,-13.24 18.648,-22.16 4.848,-0.408 9.36,-1.856 13.352,-4.184 v 44.296 l -32,-6.4 z M 440,128 v -21.776 c 4.76,2.776 8,7.88 8,13.776 0,6.032 -3.392,11.224 -8.328,13.952 C 439.88,131.992 440,130.008 440,128 Z M 384,16 c 35.288,0 64,28.712 64,64 V 92.448 C 445.52,91 442.848,89.872 440,89.136 V 80 h -8 C 418.664,80 406.12,74.808 396.688,65.376 L 384,52.688 371.312,65.376 C 361.88,74.808 349.336,80 336,80 h -8 v 9.136 c -2.848,0.744 -5.52,1.864 -8,3.312 V 80 c 0,-35.288 28.712,-64 64,-64 z m 96,224 H 288 v -5.768 c 0,-11.4 8.112,-21.296 19.296,-23.536 l 50.08,-10.016 26.624,26.632 26.632,-26.632 50.08,10.016 c 11.176,2.24 19.288,12.136 19.288,23.536 z"
         inkscape:connector-curvature="0" />
      <rect
         id="rect1330"
         height="16"
         width="16"
         y="384"
         x="304" />
      <rect
         id="rect1332"
         height="16"
         width="16"
         y="384"
         x="176" />
      <rect
         id="rect1334"
         height="16"
         width="16"
         y="416"
         x="368" />
      <rect
         id="rect1336"
         height="16"
         width="16"
         y="416"
         x="400" />
      <rect
         id="rect1338"
         height="16"
         width="16"
         y="416"
         x="432" />
      <rect
         id="rect1340"
         height="16"
         width="16"
         y="416"
         x="48" />
      <rect
         id="rect1342"
         height="16"
         width="16"
         y="416"
         x="80" />
      <rect
         id="rect1344"
         height="16"
         width="16"
         y="416"
         x="112" />
      <g
         id="g1346" />
      <g
         id="g1348" />
      <g
         id="g1350" />
      <g
         id="g1352" />
      <g
         id="g1354" />
      <g
         id="g1356" />
      <g
         id="g1358" />
      <g
         id="g1360" />
      <g
         id="g1362" />
      <g
         id="g1364" />
      <g
         id="g1366" />
      <g
         id="g1368" />
      <g
         id="g1370" />
      <g
         id="g1372" />
      <g
         id="g1374" />
    </g>
  </g>
</svg>
