<?xml version="1.0" encoding="UTF-8" standalone="no"?>
<!-- Created with Inkscape (http://www.inkscape.org/) -->

<svg
   xmlns:dc="http://purl.org/dc/elements/1.1/"
   xmlns:cc="http://creativecommons.org/ns#"
   xmlns:rdf="http://www.w3.org/1999/02/22-rdf-syntax-ns#"
   xmlns:svg="http://www.w3.org/2000/svg"
   xmlns="http://www.w3.org/2000/svg"
   xmlns:sodipodi="http://sodipodi.sourceforge.net/DTD/sodipodi-0.dtd"
   xmlns:inkscape="http://www.inkscape.org/namespaces/inkscape"
   width="900"
   height="650"
   viewBox="0 0 238.12501 171.97917"
   version="1.1"
   id="svg8"
   inkscape:version="0.92.2 5c3e80d, 2017-08-06"
   sodipodi:docname="altcoins.svg">
  <defs
     id="defs2" />
  <sodipodi:namedview
     id="base"
     pagecolor="#ffffff"
     bordercolor="#666666"
     borderopacity="1.0"
     inkscape:pageopacity="0.0"
     inkscape:pageshadow="2"
     inkscape:zoom="1.0236842"
     inkscape:cx="414.34297"
     inkscape:cy="322.85714"
     inkscape:document-units="mm"
     inkscape:current-layer="layer1"
     showgrid="false"
     units="px"
     inkscape:window-width="1920"
     inkscape:window-height="955"
     inkscape:window-x="0"
     inkscape:window-y="1"
     inkscape:window-maximized="1" />
  <metadata
     id="metadata5">
    <rdf:RDF>
      <cc:Work
         rdf:about="">
        <dc:format>image/svg+xml</dc:format>
        <dc:type
           rdf:resource="http://purl.org/dc/dcmitype/StillImage" />
        <dc:title></dc:title>
      </cc:Work>
    </rdf:RDF>
  </metadata>
  <g
     inkscape:label="Layer 1"
     inkscape:groupmode="layer"
     id="layer1"
     transform="translate(0,-125.02081)">
    <rect
       id="rect10"
       width="238.125"
       height="171.97917"
       x="0.23902856"
       y="125.37936"
       style="stroke-width:0.26458332;fill:#130f0f;fill-opacity:1" />
    <ellipse
       style="fill:#b2b2b2;fill-opacity:1;stroke-width:0.52518797"
       id="path822"
       cx="117.99075"
       cy="212.48296"
       rx="67.464378"
       ry="68.233932" />
    <g
       id="g1122"
       transform="matrix(0.1927489,0,0,0.1927489,70.975562,162.75276)">
      <g
         id="g1050"
         style="fill:#cca400">
        <path
           id="path1018"
           d="m 119.41016,332.88672 c -61.242191,0 -110.87891,-7.67578 -110.87891,-17.05469 v 34.11328 c 0,9.38282 49.636719,17.0586 110.87891,17.0586 61.23828,0 110.875,-7.67578 110.875,-17.0586 v -34.11328 c 0,9.37891 -49.63672,17.05469 -110.875,17.05469 z m 0,0"
           inkscape:connector-curvature="0" />
        <path
           id="path1020"
           d="m 119.41016,367.00391 c -61.242191,0 -110.87891,-7.67579 -110.87891,-17.0586 v 34.11719 c 0,9.38281 49.636719,17.05859 110.87891,17.05859 61.23828,0 110.875,-7.67578 110.875,-17.05859 v -34.11719 c 0,9.38281 -49.63672,17.0586 -110.875,17.0586 z m 0,0"
           inkscape:connector-curvature="0" />
        <path
           id="path1022"
           d="m 119.41016,298.77344 c -61.242191,0 -110.87891,-7.67969 -110.87891,-17.0586 v 34.11328 c 0,9.38282 49.636719,17.0586 110.87891,17.0586 61.23828,0 110.875,-7.67578 110.875,-17.0586 v -34.11328 c 0,9.37891 -49.63672,17.0586 -110.875,17.0586 z m 0,0"
           inkscape:connector-curvature="0" />
        <path
           id="path1024"
           d="m 119.41016,401.12109 c -61.242191,0 -110.87891,-7.67578 -110.87891,-17.05859 v 34.11719 c 0,9.38281 49.636719,17.05859 110.87891,17.05859 61.23828,0 110.875,-7.67578 110.875,-17.05859 V 384.0625 c 0,9.38281 -49.63672,17.05859 -110.875,17.05859 z m 0,0"
           inkscape:connector-curvature="0" />
        <path
           id="path1026"
           d="m 119.41016,128.1875 c -61.242191,0 -110.87891,-7.67578 -110.87891,-17.05859 v 34.11718 c 0,9.38282 49.636719,17.0586 110.87891,17.0586 61.23828,0 110.875,-7.67578 110.875,-17.0586 v -34.11718 c 0,9.38281 -49.63672,17.05859 -110.875,17.05859 z m 0,0"
           inkscape:connector-curvature="0" />
        <path
           id="path1028"
           d="m 119.41016,162.30469 c -61.242191,0 -110.87891,-7.67578 -110.87891,-17.0586 v 34.11719 c 0,9.38281 49.636719,17.05859 110.87891,17.05859 61.23828,0 110.875,-7.67578 110.875,-17.05859 v -34.11719 c 0,9.38282 -49.63672,17.0586 -110.875,17.0586 z m 0,0"
           inkscape:connector-curvature="0" />
        <path
           id="path1030"
           d="m 119.41016,264.65625 c -61.242191,0 -110.87891,-7.67578 -110.87891,-17.05859 v 34.11718 c 0,9.37891 49.636719,17.0586 110.87891,17.0586 61.23828,0 110.875,-7.67969 110.875,-17.0586 v -34.11718 c 0,9.38281 -49.63672,17.05859 -110.875,17.05859 z m 0,0"
           inkscape:connector-curvature="0" />
        <path
           id="path1032"
           d="m 119.41016,196.42187 c -61.242191,0 -110.87891,-7.67578 -110.87891,-17.05859 v 34.11719 c 0,9.38281 49.636719,17.05859 110.87891,17.05859 61.23828,0 110.875,-7.67578 110.875,-17.05859 v -34.11719 c 0,9.38281 -49.63672,17.05859 -110.875,17.05859 z m 0,0"
           inkscape:connector-curvature="0" />
        <path
           id="path1034"
           d="m 119.41016,230.53906 c -61.242191,0 -110.87891,-7.67578 -110.87891,-17.05859 v 34.11719 c 0,9.38281 49.636719,17.05859 110.87891,17.05859 61.23828,0 110.875,-7.67578 110.875,-17.05859 v -34.11719 c 0,9.38281 -49.63672,17.05859 -110.875,17.05859 z m 0,0"
           inkscape:connector-curvature="0" />
        <path
           id="path1036"
           d="m 119.41016,469.35547 c -61.242191,0 -110.87891,-7.67578 -110.87891,-17.0586 v 34.11719 c 0,9.37891 49.636719,17.0586 110.87891,17.0586 61.23828,0 110.875,-7.67969 110.875,-17.0586 v -34.11718 c 0,9.38281 -49.63672,17.05859 -110.875,17.05859 z m 0,0"
           inkscape:connector-curvature="0" />
        <path
           id="path1038"
           d="m 119.41016,59.957031 c -61.242191,0 -110.87891,-7.632812 -110.87891,-17.058593 v 34.117187 c 0,9.378906 49.636719,17.058594 110.87891,17.058594 61.23828,0 110.875,-7.679688 110.875,-17.058594 V 42.898438 c 0,9.425781 -49.63672,17.058593 -110.875,17.058593 z m 0,0"
           inkscape:connector-curvature="0" />
        <path
           id="path1040"
           d="m 119.41016,435.23828 c -61.242191,0 -110.87891,-7.67578 -110.87891,-17.05859 v 34.11718 c 0,9.38282 49.636719,17.0586 110.87891,17.0586 61.23828,0 110.875,-7.67578 110.875,-17.0586 v -34.11718 c 0,9.38281 -49.63672,17.05859 -110.875,17.05859 z m 0,0"
           inkscape:connector-curvature="0" />
        <path
           id="path1042"
           d="m 119.41016,94.074219 c -61.242191,0 -110.87891,-7.679688 -110.87891,-17.058594 v 34.113285 c 0,9.38281 49.636719,17.05859 110.87891,17.05859 61.23828,0 110.875,-7.67578 110.875,-17.05859 V 77.015625 c 0,9.378906 -49.63672,17.058594 -110.875,17.058594 z m 0,0"
           inkscape:connector-curvature="0" />
        <path
           id="path1044"
           d="m 375.28125,298.77344 c -61.23828,0 -110.87891,-7.67969 -110.87891,-17.0586 v 34.11328 c 0,9.38282 49.64063,17.0586 110.87891,17.0586 61.23828,0 110.87891,-7.67578 110.87891,-17.0586 v -34.11328 c 0,9.37891 -49.64063,17.0586 -110.87891,17.0586 z m 0,0"
           inkscape:connector-curvature="0" />
        <path
           id="path1046"
           d="m 375.28125,332.88672 c -61.23828,0 -110.87891,-7.67578 -110.87891,-17.05469 v 34.11328 c 0,9.38282 49.64063,17.0586 110.87891,17.0586 61.23828,0 110.87891,-7.67578 110.87891,-17.0586 v -34.11328 c 0,9.37891 -49.64063,17.05469 -110.87891,17.05469 z m 0,0"
           inkscape:connector-curvature="0" />
        <path
           id="path1048"
           d="m 375.28125,367.00391 c -61.23828,0 -110.87891,-7.67579 -110.87891,-17.0586 v 34.11719 c 0,9.38281 49.64063,17.05859 110.87891,17.05859 61.23828,0 110.87891,-7.67578 110.87891,-17.05859 v -34.11719 c 0,9.38281 -49.64063,17.0586 -110.87891,17.0586 z m 0,0"
           inkscape:connector-curvature="0" />
      </g>
      <path
         id="path1052"
         d="m 375.28125,264.65625 c -29.39063,0.0156 -57.88281,-10.13672 -80.64063,-28.73438 -18.73828,3.07032 -30.23828,7.15625 -30.23828,11.67579 0,9.38281 49.64063,17.05859 110.87891,17.05859 z m 0,0"
         inkscape:connector-curvature="0"
         style="fill:#ffcd00" />
      <path
         id="path1054"
         d="m 375.28125,435.23828 c -61.23828,0 -110.87891,-7.67578 -110.87891,-17.05859 v 34.11718 c 0,9.38282 49.64063,17.0586 110.87891,17.0586 61.23828,0 110.87891,-7.67578 110.87891,-17.0586 v -34.11718 c 0,9.38281 -49.64063,17.05859 -110.87891,17.05859 z m 0,0"
         inkscape:connector-curvature="0"
         style="fill:#cca400" />
      <path
         id="path1056"
         d="m 375.28125,264.65625 c -61.23828,0 -110.87891,-7.67578 -110.87891,-17.05859 v 34.11718 c 0,9.37891 49.64063,17.0586 110.87891,17.0586 61.23828,0 110.87891,-7.67969 110.87891,-17.0586 v -34.11718 c 0,9.38281 -49.64063,17.05859 -110.87891,17.05859 z m 0,0"
         inkscape:connector-curvature="0"
         style="fill:#cca400" />
      <path
         id="path1058"
         d="m 375.28125,401.12109 c -61.23828,0 -110.87891,-7.67578 -110.87891,-17.05859 v 34.11719 c 0,9.38281 49.64063,17.05859 110.87891,17.05859 61.23828,0 110.87891,-7.67578 110.87891,-17.05859 V 384.0625 c 0,9.38281 -49.64063,17.05859 -110.87891,17.05859 z m 0,0"
         inkscape:connector-curvature="0"
         style="fill:#cca400" />
      <path
         id="path1060"
         d="m 486.16016,247.59766 c 0,-4.51954 -11.4961,-8.60547 -30.23438,-11.67579 -22.75781,18.59766 -51.25,28.75 -80.64453,28.73438 61.23828,0 110.87891,-7.67578 110.87891,-17.05859 z m 0,0"
         inkscape:connector-curvature="0"
         style="fill:#ffcd00" />
      <path
         id="path1062"
         d="m 375.28125,469.35547 c -61.23828,0 -110.87891,-7.67578 -110.87891,-17.0586 v 34.11719 c 0,9.37891 49.64063,17.0586 110.87891,17.0586 61.23828,0 110.87891,-7.67969 110.87891,-17.0586 v -34.11718 c 0,9.38281 -49.64063,17.05859 -110.87891,17.05859 z m 0,0"
         inkscape:connector-curvature="0"
         style="fill:#cca400" />
      <path
         id="path1064"
         d="m 230.28516,42.898438 c 0,-9.421876 -49.64063,-17.058594 -110.875,-17.058594 -61.238285,0 -110.87891,7.636718 -110.87891,17.058594 0,9.421874 49.640625,17.058593 110.87891,17.058593 61.23437,0 110.875,-7.636719 110.875,-17.058593 z m 0,0"
         inkscape:connector-curvature="0"
         style="fill:#ffcd00" />
      <path
         id="path1066"
         d="M 375.28125,8.78125 C 304.66797,8.742188 247.39062,65.957031 247.35156,136.57031 c -0.0195,38.55469 17.35547,75.05469 47.28906,99.35156 46.9336,38.3125 114.34766,38.3125 161.28516,0 54.82813,-44.5 63.20313,-125.02343 18.70703,-179.851558 C 450.33594,26.136719 413.83594,8.761719 375.28125,8.78125 Z M 336.73047,231.5625 c 0,0.0859 0.0859,0 0.0859,0 0,0 -0.0859,0.0859 -0.0859,0 z m 77.01953,0 c 0,0 0.0859,0.0859 0.0859,0 -0.004,0.0859 -0.0859,0 -0.0859,0 z m -38.46875,7.50391 c -56.52344,0 -102.34766,-45.82032 -102.34766,-102.34766 0,-56.527344 45.82422,-102.351562 102.34766,-102.351562 56.52734,0 102.35156,45.824218 102.35156,102.351562 0,56.52734 -45.82422,102.34766 -102.35156,102.34766 z m 0,0"
         inkscape:connector-curvature="0"
         style="fill:#ffe477" />
      <path
         id="path1068"
         d="m 375.28125,34.367188 c -56.52344,0 -102.34766,45.824218 -102.34766,102.351562 0,56.52734 45.82422,102.35156 102.34766,102.35156 56.52734,0 102.35156,-45.82422 102.35156,-102.35156 0,-56.527344 -45.82422,-102.351562 -102.35156,-102.351562 z m 34.11719,85.292972 c 0,9.42187 -7.63672,17.05859 -17.0586,17.05859 9.42188,0 17.0586,7.63672 17.0586,17.05859 v 17.0586 c 0,9.42187 -7.63672,17.05859 -17.0586,17.05859 H 358.22266 V 85.542969 h 34.11718 c 9.42188,0 17.0586,7.636719 17.0586,17.058591 z m 0,0"
         inkscape:connector-curvature="0"
         style="fill:#ffcd00" />
      <path
         id="path1070"
         d="m 392.33984,85.542969 h -34.11718 v 51.175781 h 34.11718 c 9.42188,0 17.0586,-7.63672 17.0586,-17.05859 v -17.0586 c 0,-9.421872 -7.63672,-17.058591 -17.0586,-17.058591 z m 0,0"
         inkscape:connector-curvature="0"
         style="fill:#ffcd00" />
      <path
         id="path1072"
         d="m 358.22266,187.89453 h 34.11718 c 9.42188,0 17.0586,-7.63672 17.0586,-17.05859 v -17.0586 c 0,-9.42187 -7.63672,-17.05859 -17.0586,-17.05859 h -34.11718 z m 0,0"
         inkscape:connector-curvature="0"
         style="fill:#ffcd00" />
      <path
         id="path1074"
         d="M 473.75781,230.94141 C 525.9375,176.55078 524.14453,90.164062 469.75391,37.988281 415.36719,-14.1875 328.98047,-12.394531 276.80469,41.992188 c -50.65235,52.800781 -50.65235,136.148432 0,188.949222 -14.63672,3.95703 -20.92969,9.125 -20.92969,16.65625 v 238.8164 c 0.004,1.17578 0.25391,2.33594 0.73438,3.41016 C 263.96094,508.99609 333.09766,512 375.28125,512 c 42.1875,0 111.32422,-3.00391 118.67578,-22.17578 0.48047,-1.07422 0.73047,-2.23438 0.73438,-3.41016 v -238.8164 c 0,-7.53125 -6.29688,-12.69922 -20.9336,-16.65625 z m 3.875,218.68359 c -7.85547,4.30859 -42.5,11.19922 -102.35156,11.19922 -59.84766,0 -94.49219,-6.89063 -102.34766,-11.19922 v -16.27344 c 24.73438,8.71094 70.96094,10.41406 102.34766,10.41406 31.38672,0 77.61719,-1.70312 102.35156,-10.41406 z m 0,-34.11328 c -7.85547,4.30469 -42.5,11.19531 -102.35156,11.19531 -59.84766,0 -94.49219,-6.89062 -102.34766,-11.19531 v -16.27344 c 24.73438,8.70703 70.96094,10.41406 102.34766,10.41406 31.38672,0 77.61719,-1.70703 102.35156,-10.41406 z m 0,-34.11719 c -7.85547,4.30469 -42.5,11.19922 -102.35156,11.19922 -59.84766,0 -94.49219,-6.89453 -102.34766,-11.19922 v -16.27344 c 24.73438,8.70703 70.96094,10.41407 102.34766,10.41407 31.38672,0 77.61719,-1.70703 102.35156,-10.41407 z m 0,-34.11719 c -7.85547,4.3086 -42.5,11.19922 -102.35156,11.19922 -59.84766,0 -94.49219,-6.89062 -102.34766,-11.19922 v -16.27343 c 24.73438,8.70703 70.96094,10.41406 102.34766,10.41406 31.38672,0 77.61719,-1.70703 102.35156,-10.41406 z m 0,-34.11718 c -7.85547,4.30859 -42.5,11.19921 -102.35156,11.19921 -59.84766,0 -94.49219,-6.89062 -102.34766,-11.19921 v -16.27344 c 24.73438,8.70703 70.96094,10.41406 102.34766,10.41406 31.38672,0 77.61719,-1.70703 102.35156,-10.41406 z m 0,-34.11719 c -7.85547,4.30859 -42.5,11.19922 -102.35156,11.19922 -59.84766,0 -94.49219,-6.89063 -102.34766,-11.19922 v -16.27344 c 24.73438,8.71094 70.96094,10.41406 102.34766,10.41406 31.38672,0 77.61719,-1.70312 102.35156,-10.41406 z M 292.5,244.92578 c 3.14453,2.41406 6.37891,4.69922 9.73828,6.82422 -7.36719,-0.94141 -14.66797,-2.32813 -21.86719,-4.15234 2.96485,-0.79297 6.95703,-1.70704 12.12891,-2.64454 z m 165.56641,0 c 5.16797,0.92969 9.16015,1.85156 12.1289,2.67188 -7.19922,1.82812 -14.5039,3.22265 -21.87109,4.17187 3.36328,-2.11719 6.59375,-4.40234 9.74219,-6.81641 z M 375.28125,17.308594 c 65.92578,-0.01953 119.38281,53.40625 119.40625,119.328126 0.0117,35.71484 -15.96875,69.55469 -43.55469,92.23828 -0.15625,0.10156 -0.29297,0.20703 -0.42578,0.31641 -43.86719,35.90234 -106.96094,35.90234 -150.82422,0 -0.14453,-0.10938 -0.27343,-0.21485 -0.41797,-0.3086 C 248.54297,187.01953 241.19531,111.80078 283.05859,60.875 305.73438,33.289062 339.57031,17.304688 375.28125,17.308594 Z M 272.93359,483.74219 v -16.27344 c 24.73438,8.71094 70.96094,10.41406 102.34766,10.41406 31.38672,0 77.61719,-1.70312 102.35156,-10.41406 v 16.27344 c -7.85547,4.30859 -42.5,11.19922 -102.35156,11.19922 -59.84766,0 -94.49219,-6.89063 -102.34766,-11.19922 z m 0,0"
         inkscape:connector-curvature="0"
         style="fill:#231f20" />
      <path
         id="path1076"
         d="m 332.91016,239.14453 c 0.15234,0.10547 0.3125,0.20313 0.47656,0.28906 0.24219,0.0664 0.48828,0.11719 0.73437,0.15625 26.40235,10.67578 55.92188,10.67578 82.32422,0 0.2461,-0.0391 0.48828,-0.0898 0.73047,-0.15625 0.16406,-0.0859 0.32422,-0.18359 0.48047,-0.28906 56.58594,-23.40234 83.49219,-88.24609 60.08984,-144.835936 -23.40234,-56.589844 -88.25,-83.492188 -144.83593,-60.089844 -56.58985,23.402344 -83.49219,88.24609 -60.08985,144.83594 11.25391,27.21484 32.875,48.83593 60.08985,60.08984 z M 375.28125,42.898438 c 51.81641,0 93.82031,42.003906 93.82031,93.820312 0,51.81641 -42.0039,93.82031 -93.82031,93.82031 -51.81641,0 -93.82031,-42.0039 -93.82031,-93.82031 0.0625,-51.789062 42.03125,-93.761719 93.82031,-93.820312 z m 0,0"
         inkscape:connector-curvature="0"
         style="fill:#231f20" />
      <path
         id="path1078"
         d="m 358.22266,213.48047 h 17.05859 v -17.0586 h 8.53125 v 17.0586 h 17.05859 v -18.62891 c 10.1875,-3.60156 17.01172,-13.21094 17.0586,-24.01562 v -17.0586 c -0.0234,-6.3164 -2.39453,-12.39843 -6.65235,-17.05859 4.25782,-4.66406 6.62891,-10.74609 6.65235,-17.05859 v -17.0586 c -0.0469,-10.804685 -6.8711,-20.417966 -17.0586,-24.019529 v -18.625 H 383.8125 v 17.058594 h -8.53125 V 59.957031 h -17.05859 v 17.058594 h -25.58594 v 17.054687 h 17.05859 v 85.292968 h -17.05859 v 17.05859 h 25.58594 z m 8.53125,-119.406251 h 25.58593 c 4.71094,0 8.53125,3.816406 8.53125,8.527341 v 17.0586 c 0,4.71093 -3.82031,8.53125 -8.53125,8.53125 h -25.58593 z m 34.11718,76.761721 c 0,4.71093 -3.82031,8.52734 -8.53125,8.52734 h -25.58593 v -34.11719 h 25.58593 c 4.71094,0 8.53125,3.82032 8.53125,8.53125 z m 0,0"
         inkscape:connector-curvature="0"
         style="fill:#231f20" />
      <path
         id="path1080"
         d="m 238.81641,42.898438 c -0.004,-1.175782 -0.25391,-2.339844 -0.73438,-3.414063 C 230.73047,20.3125 161.59375,17.308594 119.41016,17.308594 77.222656,17.308594 8.085938,20.3125 0.734375,39.484375 0.253906,40.558594 0.00390625,41.722656 0,42.898438 V 486.41406 c 0.00390625,1.17578 0.253906,2.33594 0.734375,3.41016 C 8.085938,508.99609 77.222656,512 119.40625,512 c 42.1875,0 111.32422,-3.00391 118.67578,-22.17578 0.48047,-1.07422 0.73047,-2.23438 0.73438,-3.41016 z M 221.75781,449.625 c -7.85547,4.30859 -42.5,11.19922 -102.35156,11.19922 -59.847656,0 -94.492188,-6.89063 -102.347656,-11.19922 v -16.27344 c 24.734375,8.71094 70.960937,10.41406 102.347656,10.41406 31.39062,0 77.61719,-1.70312 102.35156,-10.41406 z m 0,-375.28125 c -7.85547,4.308594 -42.5,11.199219 -102.35156,11.199219 -59.847656,0 -94.492188,-6.890625 -102.347656,-11.199219 V 58.070312 c 24.734375,8.710938 70.960937,10.414063 102.347656,10.414063 31.39062,0 77.61719,-1.703125 102.35156,-10.414063 z m -102.34765,28.25781 c 31.38671,0 77.61328,-1.70703 102.34765,-10.41406 v 16.27344 c -7.85547,4.30859 -42.5,11.19922 -102.34765,11.19922 -59.851566,0 -94.496098,-6.89063 -102.351566,-11.19922 V 92.1875 c 24.734375,8.70703 70.960937,10.41406 102.351566,10.41406 z m 102.34765,312.91016 c -7.85547,4.30469 -42.5,11.19531 -102.35156,11.19531 -59.847656,0 -94.492188,-6.89062 -102.347656,-11.19531 v -16.27344 c 24.734375,8.70703 70.960937,10.41406 102.347656,10.41406 31.39062,0 77.61719,-1.70703 102.35156,-10.41406 z m 0,-34.11719 c -7.85547,4.30469 -42.5,11.19922 -102.35156,11.19922 -59.847656,0 -94.492188,-6.89453 -102.347656,-11.19922 v -16.27344 c 24.734375,8.70703 70.960937,10.41407 102.351566,10.41407 31.38671,0 77.61328,-1.70703 102.34765,-10.41407 z m 0,-34.11719 c -7.85547,4.3086 -42.5,11.19922 -102.35156,11.19922 -59.847656,0 -94.492188,-6.89062 -102.347656,-11.19922 v -16.27343 c 24.734375,8.70703 70.960937,10.41406 102.347656,10.41406 31.39062,0 77.61719,-1.70703 102.35156,-10.41406 z m 0,-34.11718 c -7.85547,4.30859 -42.5,11.19921 -102.35156,11.19921 -59.847656,0 -94.492188,-6.89062 -102.347656,-11.19921 v -16.27344 c 24.734375,8.70703 70.960937,10.41406 102.347656,10.41406 31.39062,0 77.61719,-1.70703 102.35156,-10.41406 z m 0,-34.11719 c -7.85547,4.30859 -42.5,11.19922 -102.35156,11.19922 -59.847656,0 -94.492188,-6.89063 -102.347656,-11.19922 v -16.27344 c 24.734375,8.71094 70.960937,10.41406 102.347656,10.41406 31.39062,0 77.61719,-1.70312 102.35156,-10.41406 z m 0,-34.11719 c -7.85547,4.26563 -42.5,11.19922 -102.35156,11.19922 -59.847656,0 -94.492188,-6.89063 -102.347656,-11.19922 v -16.27344 c 24.734375,8.71094 70.960937,10.41407 102.347656,10.41407 31.39062,0 77.61719,-1.70313 102.35156,-10.41407 z m 0,-34.11328 c -7.85547,4.26172 -42.5,11.19531 -102.35156,11.19531 -59.847656,0 -94.492188,-6.89062 -102.347656,-11.19531 v -16.27344 c 24.734375,8.70703 70.960937,10.41407 102.347656,10.41407 31.39062,0 77.61719,-1.70704 102.35156,-10.41407 z m 0,-34.11719 c -7.85547,4.26563 -42.5,11.19922 -102.35156,11.19922 -59.847656,0 -94.492188,-6.89453 -102.347656,-11.19922 v -16.27343 c 24.734375,8.70703 70.960937,10.41406 102.347656,10.41406 31.39062,0 77.61719,-1.70703 102.35156,-10.41406 z m 0,-34.11718 c -7.85547,4.26562 -42.5,11.19921 -102.35156,11.19921 -59.847656,0 -94.492188,-6.89453 -102.347656,-11.19921 v -16.27344 c 24.734375,8.70703 70.960937,10.41406 102.347656,10.41406 31.39062,0 77.61719,-1.70703 102.35156,-10.41406 z M 119.41016,34.367188 c 31.91406,-0.917969 63.82421,1.945312 95.0625,8.53125 -31.23829,6.585937 -63.14844,9.449218 -95.0625,8.527343 C 87.492188,52.347656 55.582031,49.484375 24.34375,42.898438 55.582031,36.3125 87.492188,33.449219 119.41016,34.367188 Z M 17.058594,483.74219 v -16.27344 c 24.734375,8.71094 70.960937,10.41406 102.351566,10.41406 31.38671,0 77.61328,-1.70312 102.34765,-10.41406 v 16.27344 c -7.85547,4.30859 -42.5,11.19922 -102.34765,11.19922 -59.851566,0 -94.496098,-6.89063 -102.351566,-11.19922 z m 0,0"
         inkscape:connector-curvature="0"
         style="fill:#231f20" />
    </g>
  </g>
</svg>
