<?xml version="1.0" encoding="UTF-8" standalone="no"?>
<!-- Created with Inkscape (http://www.inkscape.org/) -->

<svg
   xmlns:dc="http://purl.org/dc/elements/1.1/"
   xmlns:cc="http://creativecommons.org/ns#"
   xmlns:rdf="http://www.w3.org/1999/02/22-rdf-syntax-ns#"
   xmlns:svg="http://www.w3.org/2000/svg"
   xmlns="http://www.w3.org/2000/svg"
   xmlns:sodipodi="http://sodipodi.sourceforge.net/DTD/sodipodi-0.dtd"
   xmlns:inkscape="http://www.inkscape.org/namespaces/inkscape"
   width="256"
   height="256"
   viewBox="0 0 67.733336 67.733335"
   version="1.1"
   id="svg8"
   inkscape:version="0.92.2 5c3e80d, 2017-08-06"
   sodipodi:docname="home.svg">
  <defs
     id="defs2" />
  <sodipodi:namedview
     id="base"
     pagecolor="#ffffff"
     bordercolor="#666666"
     borderopacity="1.0"
     inkscape:pageopacity="0.0"
     inkscape:pageshadow="2"
     inkscape:zoom="2.6997502"
     inkscape:cx="141.15681"
     inkscape:cy="122.5964"
     inkscape:document-units="mm"
     inkscape:current-layer="layer1"
     showgrid="false"
     units="px"
     inkscape:window-width="1920"
     inkscape:window-height="955"
     inkscape:window-x="0"
     inkscape:window-y="1"
     inkscape:window-maximized="1" />
  <metadata
     id="metadata5">
    <rdf:RDF>
      <cc:Work
         rdf:about="">
        <dc:format>image/svg+xml</dc:format>
        <dc:type
           rdf:resource="http://purl.org/dc/dcmitype/StillImage" />
        <dc:title></dc:title>
      </cc:Work>
    </rdf:RDF>
  </metadata>
  <g
     inkscape:label="Layer 1"
     inkscape:groupmode="layer"
     id="layer1"
     transform="translate(0,-229.26664)">
    <circle
       style="fill:#2c3e50;fill-opacity:1;stroke-width:0.26214993"
       id="path822"
       cx="33.957401"
       cy="263.26889"
       r="33.866665" />
    <g
       id="surface1"
       transform="matrix(0.10335286,0,0,0.10335286,7.4957735,237.27355)">
      <path
         id="path1566"
         style="fill:#ffae45;fill-opacity:1;fill-rule:nonzero;stroke:none"
         d="m 273.65625,0 h 35.30859 v 26.484375 h -35.30859 z m 0,0"
         inkscape:connector-curvature="0" />
      <path
         id="path1568"
         style="fill:#ffae45;fill-opacity:1;fill-rule:nonzero;stroke:none"
         d="m 344.27734,0 h 35.3086 v 26.484375 h -35.3086 z m 0,0"
         inkscape:connector-curvature="0" />
      <path
         id="path1570"
         style="fill:#ffae45;fill-opacity:1;fill-rule:nonzero;stroke:none"
         d="m 203.03516,0 h 35.30859 v 26.484375 h -35.30859 z m 0,0"
         inkscape:connector-curvature="0" />
      <path
         id="path1572"
         style="fill:#ffae45;fill-opacity:1;fill-rule:nonzero;stroke:none"
         d="m 132.41406,0 h 35.3086 v 26.484375 h -35.3086 z m 0,0"
         inkscape:connector-curvature="0" />
      <path
         id="path1574"
         style="fill:#ffae45;fill-opacity:1;fill-rule:nonzero;stroke:none"
         d="m 273.65625,485.51562 h 35.30859 V 512 h -35.30859 z m 0,0"
         inkscape:connector-curvature="0" />
      <path
         id="path1576"
         style="fill:#ffae45;fill-opacity:1;fill-rule:nonzero;stroke:none"
         d="m 344.27734,485.51562 h 35.3086 V 512 h -35.3086 z m 0,0"
         inkscape:connector-curvature="0" />
      <path
         id="path1578"
         style="fill:#ffae45;fill-opacity:1;fill-rule:nonzero;stroke:none"
         d="m 203.03516,485.51562 h 35.30859 V 512 h -35.30859 z m 0,0"
         inkscape:connector-curvature="0" />
      <path
         id="path1580"
         style="fill:#ffae45;fill-opacity:1;fill-rule:nonzero;stroke:none"
         d="m 132.41406,485.51562 h 35.3086 V 512 h -35.3086 z m 0,0"
         inkscape:connector-curvature="0" />
      <path
         id="path1582"
         style="fill:#ffae45;fill-opacity:1;fill-rule:nonzero;stroke:none"
         d="M 485.51562,203.03516 H 512 v 35.30859 h -26.48438 z m 0,0"
         inkscape:connector-curvature="0" />
      <path
         id="path1584"
         style="fill:#ffae45;fill-opacity:1;fill-rule:nonzero;stroke:none"
         d="M 485.51562,132.41406 H 512 v 35.3086 h -26.48438 z m 0,0"
         inkscape:connector-curvature="0" />
      <path
         id="path1586"
         style="fill:#ffae45;fill-opacity:1;fill-rule:nonzero;stroke:none"
         d="M 485.51562,273.65625 H 512 v 35.30859 h -26.48438 z m 0,0"
         inkscape:connector-curvature="0" />
      <path
         id="path1588"
         style="fill:#ffae45;fill-opacity:1;fill-rule:nonzero;stroke:none"
         d="M 485.51562,344.27734 H 512 v 35.3086 h -26.48438 z m 0,0"
         inkscape:connector-curvature="0" />
      <path
         id="path1590"
         style="fill:#ffae45;fill-opacity:1;fill-rule:nonzero;stroke:none"
         d="m 0,203.03516 h 26.484375 v 35.30859 H 0 Z m 0,0"
         inkscape:connector-curvature="0" />
      <path
         id="path1592"
         style="fill:#ffae45;fill-opacity:1;fill-rule:nonzero;stroke:none"
         d="m 0,132.41406 h 26.484375 v 35.3086 H 0 Z m 0,0"
         inkscape:connector-curvature="0" />
      <path
         id="path1594"
         style="fill:#ffae45;fill-opacity:1;fill-rule:nonzero;stroke:none"
         d="m 0,273.65625 h 26.484375 v 35.30859 H 0 Z m 0,0"
         inkscape:connector-curvature="0" />
      <path
         id="path1596"
         style="fill:#ffae45;fill-opacity:1;fill-rule:nonzero;stroke:none"
         d="m 0,344.27734 h 26.484375 v 35.3086 H 0 Z m 0,0"
         inkscape:connector-curvature="0" />
      <path
         id="path1598"
         style="fill:#85cf99;fill-opacity:1;fill-rule:nonzero;stroke:none"
         d="M 300.13672,238.34375 V 220.6875 c 0,-9.75 -7.90235,-17.65234 -17.65625,-17.65234 H 229.51562 V 256 h 52.96485 c 9.7539,0 17.65625,-7.90625 17.65625,-17.65625 z m 0,0"
         inkscape:connector-curvature="0" />
      <path
         id="path1600"
         style="fill:#85cf99;fill-opacity:1;fill-rule:nonzero;stroke:none"
         d="m 229.51562,308.96484 h 52.96875 c 9.75,0 17.65235,-7.90234 17.65235,-17.65625 v -17.65625 c 0,-9.75 -7.90235,-17.65234 -17.65235,-17.65234 h -52.96875 z m 0,0"
         inkscape:connector-curvature="0" />
      <path
         id="path1602"
         style="fill:#85cf99;fill-opacity:1;fill-rule:nonzero;stroke:none"
         d="M 388.41406,256 C 388.41406,182.87109 329.12891,123.58594 256,123.58594 v 26.48047 c 58.50391,-0.004 105.93359,47.41796 105.94141,105.92187 0,22.03516 -6.86719,43.52344 -19.65235,61.46875 C 376.23047,269.80469 365.11719,203.66016 317.46484,169.71875 299.51953,156.93359 278.03516,150.06641 256,150.06641 v 52.96875 h 26.48437 c 9.75,0 17.65625,7.90234 17.65625,17.65234 v 17.65625 c 0,9.75 -7.90625,17.65625 -17.65625,17.65625 9.75,0 17.65625,7.90625 17.65625,17.65625 v 17.65625 c 0,9.75 -7.90625,17.65625 -17.65625,17.65625 H 256 v 52.96484 c 22.37891,0.0352 44.18359,-7.04687 62.26953,-20.22656 C 300.18359,354.88672 278.375,361.96875 256,361.93359 v 26.48047 c 73.12891,0 132.41406,-59.28515 132.41406,-132.41406 z m 0,0"
         inkscape:connector-curvature="0" />
      <path
         id="path1604"
         style="fill:#85cf99;fill-opacity:1;fill-rule:nonzero;stroke:none"
         d="m 238.34375,308.96484 0.22266,26.48438 -0.22266,-26.48438 h -8.82813 V 203.03516 h 8.82813 l 0.22266,-26.48438 -0.22266,26.48438 H 256 v -52.96485 c -58.50391,0 -105.92969,47.42578 -105.92969,105.92969 0,58.50391 47.42578,105.92969 105.92969,105.92969 v -52.96485 z m 0,0"
         inkscape:connector-curvature="0" />
      <path
         id="path1606"
         style="fill:#33855e;fill-opacity:1;fill-rule:nonzero;stroke:none"
         d="M 412.64453,26.484375 H 256 v 52.964844 h 134.43359 l 42.11719,42.832031 v 268.23437 l -41.83203,42.03516 H 256 v 52.96484 h 156.73437 l 72.78125,-73.13671 V 100.60938 Z m 0,0"
         inkscape:connector-curvature="0" />
      <path
         id="path1608"
         style="fill:#006635;fill-opacity:1;fill-rule:nonzero;stroke:none"
         d="M 140.69531,432.55078 H 121.48438 L 79.449219,390.51562 V 121.07031 L 121.48438,79.449219 H 256 V 26.484375 H 99.699219 L 26.484375,98.976562 V 412.46094 l 73.054687,73.05468 H 256 v -52.96484 z m 0,0"
         inkscape:connector-curvature="0" />
      <path
         id="path1610"
         style="fill:#009442;fill-opacity:1;fill-rule:nonzero;stroke:none"
         d="m 79.449219,121.07031 v 269.44531 l 42.035161,42.03516 H 256 v -44.13672 c -73.12891,0 -132.41406,-59.28515 -132.41406,-132.41406 0,-28.65234 9.29297,-56.53125 26.48047,-79.44922 -43.875,58.50391 -32.01953,141.5 26.48437,185.37891 22.91797,17.1914 50.79688,26.48047 79.44922,26.48047 v -26.48047 c -58.50391,0 -105.93359,-47.42578 -105.93359,-105.92969 0,-58.50391 47.42968,-105.93359 105.93359,-105.93359 v -26.48047 c -28.66016,-0.043 -56.55078,9.2539 -79.44922,26.48047 C 199.44922,132.83984 227.33984,123.54297 256,123.58594 V 79.449219 H 121.48438 Z m 0,0"
         inkscape:connector-curvature="0" />
      <path
         id="path1612"
         style="fill:#33a868;fill-opacity:1;fill-rule:nonzero;stroke:none"
         d="m 388.41406,256 c 0,73.12891 -59.28515,132.41406 -132.41406,132.41406 v 44.13672 h 134.71875 l 41.83203,-42.03516 V 122.28125 L 390.43359,79.449219 H 256 v 44.136721 c 73.12891,0 132.41406,59.28515 132.41406,132.41406 z m 0,0"
         inkscape:connector-curvature="0" />
      <path
         id="path1614"
         style="fill:#ffba5e;fill-opacity:1;fill-rule:nonzero;stroke:none"
         d="m 150.07031,256 c 0,-58.50391 47.42578,-105.92969 105.92969,-105.92969 v -26.48437 c -73.12891,0 -132.41406,59.28515 -132.41406,132.41406 0,73.12891 59.28515,132.41406 132.41406,132.41406 V 361.93359 C 197.49609,361.92969 150.07031,314.50391 150.07031,256 Z m 0,0"
         inkscape:connector-curvature="0" />
      <path
         id="path1616"
         style="fill:#ffc57a;fill-opacity:1;fill-rule:nonzero;stroke:none"
         d="m 256,123.58594 v 26.48437 c 58.50391,0 105.92969,47.42578 105.92969,105.92969 0,58.50391 -47.42578,105.92969 -105.92969,105.92969 v 26.48437 c 73.12891,0 132.41406,-59.28515 132.41406,-132.41406 0,-73.13281 -59.28515,-132.41406 -132.41406,-132.41406 z m 0,0"
         inkscape:connector-curvature="0" />
      <path
         id="path1618"
         style="fill:#ffba5e;fill-opacity:1;fill-rule:nonzero;stroke:none"
         d="m 264.82812,203.03516 h 17.65625 c 9.75,0 17.65235,7.90234 17.65235,17.65625 v 17.65625 c 0,9.75 -7.90235,17.65234 -17.65235,17.65234 9.75,0 17.65235,7.90625 17.65235,17.65625 v 17.65625 c 0,9.75 -7.90235,17.65625 -17.65235,17.65625 H 256 v 52.96484 c 58.50391,0 105.92969,-47.42578 105.92969,-105.92968 C 361.92969,197.5 314.50391,150.07031 256,150.07031 v 52.96875 h 8.82812 z m 0,0"
         inkscape:connector-curvature="0" />
      <path
         id="path1620"
         style="fill:#ffae45;fill-opacity:1;fill-rule:nonzero;stroke:none"
         d="m 150.07031,256 c 0,58.50391 47.42578,105.92969 105.92969,105.92969 V 308.96484 H 229.51562 V 203.03516 h 8.82813 l 0.21875,-26.48438 -0.21875,26.48438 H 256 v -52.96485 c -58.50391,0 -105.92969,47.42578 -105.92969,105.92969 z m 0,0"
         inkscape:connector-curvature="0" />
      <path
         id="path1622"
         style="fill:#ffba5e;fill-opacity:1;fill-rule:nonzero;stroke:none"
         d="m 282.48437,256 c 9.75,0 17.65235,-7.90625 17.65235,-17.65625 V 220.6875 c 0,-9.75 -7.90235,-17.65625 -17.65235,-17.65625 H 256 V 256 Z m 0,0"
         inkscape:connector-curvature="0" />
      <path
         id="path1624"
         style="fill:#ffae45;fill-opacity:1;fill-rule:nonzero;stroke:none"
         d="M 256,203.03516 H 229.51562 V 256 H 256 Z m 0,0"
         inkscape:connector-curvature="0" />
      <path
         id="path1626"
         style="fill:#ffae45;fill-opacity:1;fill-rule:nonzero;stroke:none"
         d="m 229.51562,256 v 52.96484 H 256 V 256 Z m 0,0"
         inkscape:connector-curvature="0" />
      <path
         id="path1628"
         style="fill:#ffba5e;fill-opacity:1;fill-rule:nonzero;stroke:none"
         d="m 282.48437,308.96484 c 9.75,0 17.65235,-7.90234 17.65235,-17.65625 v -17.65625 c 0,-9.75 -7.90235,-17.65234 -17.65235,-17.65234 H 256 v 52.96484 z m 0,0"
         inkscape:connector-curvature="0" />
      <path
         id="path1630"
         style="fill:#ff6142;fill-opacity:1;fill-rule:nonzero;stroke:none"
         d="m 308.96484,220.6875 c 0,-14.625 -11.85547,-26.48047 -26.48047,-26.48047 h -8.82812 V 176.55078 H 256 v 17.65625 h -8.75781 l 0.14062,-17.58594 h -0.21094 v -0.0703 h -8.61718 l -8.82813,-0.0703 v 0.0703 h -0.21094 v 17.65625 h -26.48046 v 17.65625 h 17.65234 v 88.27344 h -17.65234 v 17.65625 h 26.48046 v 17.65625 h 17.65625 V 317.79297 H 256 v 17.65625 h 17.65625 v -17.65625 h 8.82812 c 14.625,0 26.48047,-11.85547 26.48047,-26.48047 v -17.65625 c -0.0234,-6.53516 -2.47656,-12.82813 -6.88672,-17.65625 4.41016,-4.82422 6.86329,-11.11719 6.88672,-17.65625 z m -70.62109,-8.82422 h 44.14062 c 4.875,0 8.82813,3.94922 8.82813,8.82422 v 17.65625 c 0,4.875 -3.95313,8.82812 -8.82813,8.82812 h -44.14062 z m 52.96484,79.44531 c 0,4.875 -3.94922,8.82813 -8.82812,8.82813 h -44.13672 v -35.3086 h 44.13672 c 4.8789,0 8.82812,3.95313 8.82812,8.82813 z m 0,0"
         inkscape:connector-curvature="0" />
    </g>
  </g>
</svg>
