<?xml version="1.0" encoding="iso-8859-1"?>
<!-- Generator: Adobe Illustrator 19.0.0, SVG Export Plug-In . SVG Version: 6.00 Build 0)  -->
<svg version="1.1" id="Capa_1" xmlns="http://www.w3.org/2000/svg" xmlns:xlink="http://www.w3.org/1999/xlink" x="0px" y="0px"
	 viewBox="0 0 512 512" style="enable-background:new 0 0 512 512;" xml:space="preserve">
<g>
	<polygon style="fill:#AEADB3;" points="361.252,245.918 272.497,245.918 272.497,215.928 343.689,215.928 366.682,174.942 
		423.447,174.942 423.447,204.932 384.244,204.932 	"/>
	<rect x="272.492" y="294.902" style="fill:#AEADB3;" width="150.95" height="29.99"/>
	<rect x="272.492" y="47.984" style="fill:#AEADB3;" width="150.95" height="29.99"/>
	<polygon style="fill:#AEADB3;" points="413.45,461.847 348.259,461.847 309.272,422.86 278.495,422.86 278.495,392.87 
		321.694,392.87 360.681,431.857 413.45,431.857 	"/>
</g>
<path style="fill:#FFB74F;" d="M130.044,0C63.626,0,9.584,54.042,9.584,120.46c0,48.704,28.9,91.919,72.976,110.743v242.15
	L130.044,512l47.484-38.647v-50.153l-11.266-11.996l11.266-11.996v-28.84l-14.605-17.074l14.605-17.084V300.12l-7.438-7.208
	l7.438-7.208v-54.502c44.075-18.824,72.976-62.039,72.976-110.743C250.504,54.042,196.472,0,130.044,0z M144.709,88.301h-29.33
	V58.98h29.33V88.301z"/>
<g>
	<rect x="408.447" y="138.284" style="fill:#FF9577;" width="93.969" height="93.969"/>
	<rect x="408.447" y="262.913" style="fill:#FF9577;" width="93.969" height="93.969"/>
	<rect x="408.447" y="387.871" style="fill:#FF9577;" width="93.969" height="93.969"/>
	<rect x="408.447" y="15.995" style="fill:#FF9577;" width="93.969" height="93.969"/>
</g>
<path style="fill:#FF9A00;" d="M250.504,120.46c0,48.704-28.9,91.919-72.976,110.743v54.502l-7.438,7.208l7.438,7.208v36.088
	l-14.605,17.084l14.605,17.074v28.84l-11.266,11.996l11.266,11.996v50.153L130.044,512V88.301h14.665V58.98h-14.665V0
	C196.472,0,250.504,54.042,250.504,120.46z"/>
<g>
</g>
<g>
</g>
<g>
</g>
<g>
</g>
<g>
</g>
<g>
</g>
<g>
</g>
<g>
</g>
<g>
</g>
<g>
</g>
<g>
</g>
<g>
</g>
<g>
</g>
<g>
</g>
<g>
</g>
</svg>
