<?xml version="1.0" encoding="UTF-8" standalone="no"?>
<!-- Created with Inkscape (http://www.inkscape.org/) -->

<svg
   xmlns:dc="http://purl.org/dc/elements/1.1/"
   xmlns:cc="http://creativecommons.org/ns#"
   xmlns:rdf="http://www.w3.org/1999/02/22-rdf-syntax-ns#"
   xmlns:svg="http://www.w3.org/2000/svg"
   xmlns="http://www.w3.org/2000/svg"
   xmlns:sodipodi="http://sodipodi.sourceforge.net/DTD/sodipodi-0.dtd"
   xmlns:inkscape="http://www.inkscape.org/namespaces/inkscape"
   width="256"
   height="256"
   viewBox="0 0 67.733336 67.733335"
   version="1.1"
   id="svg8"
   inkscape:version="0.92.2 5c3e80d, 2017-08-06"
   sodipodi:docname="password_reset.svg">
  <defs
     id="defs2" />
  <sodipodi:namedview
     id="base"
     pagecolor="#ffffff"
     bordercolor="#666666"
     borderopacity="1.0"
     inkscape:pageopacity="0.0"
     inkscape:pageshadow="2"
     inkscape:zoom="2.5431697"
     inkscape:cx="126.76716"
     inkscape:cy="127.81483"
     inkscape:document-units="mm"
     inkscape:current-layer="layer1"
     showgrid="false"
     units="px"
     inkscape:window-width="1920"
     inkscape:window-height="955"
     inkscape:window-x="0"
     inkscape:window-y="0"
     inkscape:window-maximized="0" />
  <metadata
     id="metadata5">
    <rdf:RDF>
      <cc:Work
         rdf:about="">
        <dc:format>image/svg+xml</dc:format>
        <dc:type
           rdf:resource="http://purl.org/dc/dcmitype/StillImage" />
        <dc:title></dc:title>
      </cc:Work>
    </rdf:RDF>
  </metadata>
  <g
     inkscape:label="Layer 1"
     inkscape:groupmode="layer"
     id="layer1"
     transform="translate(0,-229.26664)">
    <circle
       style="fill:#00961f;fill-opacity:1;stroke-width:0.52518797"
       id="path822"
       cx="117.99075"
       cy="212.48296"
       r="0" />
    <g
       id="g1122"
       transform="matrix(0.1927489,0,0,0.1927489,70.975562,162.75276)" />
    <ellipse
       style="opacity:0;fill:#00961f;fill-opacity:1;stroke-width:0.26458332"
       id="path1822"
       cx="132.11252"
       cy="176.71228"
       rx="6.2664266"
       ry="4.1724286" />
    <circle
       style="opacity:1;fill:#2c3e50;fill-opacity:1;stroke-width:0.22054437"
       id="path1830"
       cx="33.935665"
       cy="263.2724"
       r="33.866665" />
    <g
       id="g3044"
       transform="matrix(0.11409301,0,0,0.11409301,4.7692905,232.65963)">
      <path
         id="path2974"
         d="m 380.942,124.942 v 50.564 c 0,8.268 -6.71,14.977 -14.977,14.977 h -44.643 c -8.268,0 -14.977,-6.71 -14.977,-14.977 v -51.103 c 0,-27.698 -22.466,-50.234 -50.125,-50.354 H 256 c -27.758,0 -50.354,22.586 -50.354,50.354 V 234.418 H 131.058 V 124.942 C 131.058,56.046 187.104,0 256,0 h 0.22 c 68.796,0.12 124.722,56.116 124.722,124.942 z"
         style="fill:#7c8287"
         inkscape:connector-curvature="0" />
      <path
         id="path2976"
         d="m 420.543,254.198 v 188.986 c 0,37.943 -30.874,68.817 -68.816,68.817 H 160.264 c -37.943,0 -68.807,-30.874 -68.807,-68.816 V 254.198 c 0,-19.161 15.597,-34.758 34.758,-34.758 h 259.56 c 19.171,0 34.768,15.597 34.768,34.758 z"
         style="fill:#ffb64c"
         inkscape:connector-curvature="0" />
      <path
         id="path2978"
         d="m 420.543,254.198 v 188.986 c 0,37.943 -30.874,68.817 -68.816,68.817 H 256.22 V 219.44 h 129.555 c 19.171,0 34.768,15.597 34.768,34.758 z"
         style="fill:#ff9f00"
         inkscape:connector-curvature="0" />
      <path
         id="path2980"
         d="m 299.055,345.161 c 0,18.472 -11.702,34.258 -28.078,40.359 v 24.883 c 0,8.198 -6.59,14.858 -14.758,14.967 -0.07,0.01 -0.15,0.01 -0.22,0.01 -8.278,0 -14.977,-6.71 -14.977,-14.977 V 385.52 c -16.375,-6.101 -28.078,-21.887 -28.078,-40.359 0,-23.734 19.311,-43.055 43.055,-43.055 h 0.22 c 23.635,0.119 42.836,19.39 42.836,43.055 z"
         style="fill:#ff7d43"
         inkscape:connector-curvature="0" />
      <path
         id="path2982"
         d="m 299.055,345.161 c 0,18.472 -11.702,34.258 -28.078,40.359 v 24.883 c 0,8.198 -6.59,14.858 -14.758,14.967 V 302.106 c 23.635,0.119 42.836,19.39 42.836,43.055 z"
         style="fill:#ff641a"
         inkscape:connector-curvature="0" />
      <path
         id="path2984"
         d="m 380.942,124.942 v 50.564 c 0,8.268 -6.71,14.977 -14.977,14.977 h -44.643 c -8.268,0 -14.977,-6.71 -14.977,-14.977 v -51.103 c 0,-27.698 -22.466,-50.234 -50.125,-50.354 V 0 c 68.796,0.12 124.722,56.116 124.722,124.942 z"
         style="fill:#596c76"
         inkscape:connector-curvature="0" />
      <g
         id="g2986" />
      <g
         id="g2988" />
      <g
         id="g2990" />
      <g
         id="g2992" />
      <g
         id="g2994" />
      <g
         id="g2996" />
      <g
         id="g2998" />
      <g
         id="g3000" />
      <g
         id="g3002" />
      <g
         id="g3004" />
      <g
         id="g3006" />
      <g
         id="g3008" />
      <g
         id="g3010" />
      <g
         id="g3012" />
      <g
         id="g3014" />
    </g>
  </g>
</svg>
