<?xml version="1.0" encoding="UTF-8" standalone="no"?>
<!-- Created with Inkscape (http://www.inkscape.org/) -->

<svg
   xmlns:dc="http://purl.org/dc/elements/1.1/"
   xmlns:cc="http://creativecommons.org/ns#"
   xmlns:rdf="http://www.w3.org/1999/02/22-rdf-syntax-ns#"
   xmlns:svg="http://www.w3.org/2000/svg"
   xmlns="http://www.w3.org/2000/svg"
   xmlns:sodipodi="http://sodipodi.sourceforge.net/DTD/sodipodi-0.dtd"
   xmlns:inkscape="http://www.inkscape.org/namespaces/inkscape"
   width="256"
   height="256"
   viewBox="0 0 67.733336 67.733335"
   version="1.1"
   id="svg8"
   inkscape:version="0.92.2 5c3e80d, 2017-08-06"
   sodipodi:docname="password_mail.svg">
  <defs
     id="defs2" />
  <sodipodi:namedview
     id="base"
     pagecolor="#ffffff"
     bordercolor="#666666"
     borderopacity="1.0"
     inkscape:pageopacity="0.0"
     inkscape:pageshadow="2"
     inkscape:zoom="2.5431697"
     inkscape:cx="126.76716"
     inkscape:cy="127.81483"
     inkscape:document-units="mm"
     inkscape:current-layer="layer1"
     showgrid="false"
     units="px"
     inkscape:window-width="1920"
     inkscape:window-height="955"
     inkscape:window-x="0"
     inkscape:window-y="0"
     inkscape:window-maximized="0" />
  <metadata
     id="metadata5">
    <rdf:RDF>
      <cc:Work
         rdf:about="">
        <dc:format>image/svg+xml</dc:format>
        <dc:type
           rdf:resource="http://purl.org/dc/dcmitype/StillImage" />
        <dc:title></dc:title>
      </cc:Work>
    </rdf:RDF>
  </metadata>
  <g
     inkscape:label="Layer 1"
     inkscape:groupmode="layer"
     id="layer1"
     transform="translate(0,-229.26664)">
    <circle
       style="fill:#00961f;fill-opacity:1;stroke-width:0.52518797"
       id="path822"
       cx="117.99075"
       cy="212.48296"
       r="0" />
    <g
       id="g1122"
       transform="matrix(0.1927489,0,0,0.1927489,70.975562,162.75276)" />
    <ellipse
       style="opacity:0;fill:#00961f;fill-opacity:1;stroke-width:0.26458332"
       id="path1822"
       cx="132.11252"
       cy="176.71228"
       rx="6.2664266"
       ry="4.1724286" />
    <circle
       style="opacity:1;fill:#2c3e50;fill-opacity:1;stroke-width:0.22054437"
       id="path1830"
       cx="33.935665"
       cy="263.2724"
       r="33.866665" />
    <g
       id="g2441"
       transform="matrix(0.17950669,0,0,0.17950669,7.582317,234.77425)">
      <g
         id="g2383">
        <path
           id="path2377"
           d="m 262.797,219.065 c -1.636,-1.505 -17.773,-0.464 -17.773,-0.464 l -0.184,-17.073 -7.893,-9.022 -18.709,-0.306 -0.018,-0.026 v 0 c -0.079,0.254 -0.009,-18.779 -0.009,-18.779 l -8.733,-6.327 c 0,0 -16.985,-0.499 -17.125,-0.63 l -1.365,-17.449 -15.725,-18.613 C 180.697,118.65 183.83,105.62 183.83,91.837 183.83,41.126 142.683,0.014 91.929,0.014 41.147,0.004 0,41.116 0,91.827 c 0,50.72 41.147,91.84 91.91,91.84 14.08,0 27.373,-3.264 39.3,-8.926 L 235.739,279.9 c 0,0 44.253,0.122 44.253,0.105 l 0.07,-44.664 c 0,0 -6.948,-6.773 -17.265,-16.276 z M 74.374,96.378 c -12.032,0 -21.781,-9.81 -21.781,-21.912 0,-12.102 9.748,-21.921 21.781,-21.921 12.033,0 21.79,9.818 21.79,21.921 0,12.103 -9.758,21.912 -21.79,21.912 z"
           style="fill:#efc75e"
           inkscape:connector-curvature="0" />
        <path
           id="path2379"
           d="m 74.391,43.767 c -16.915,0 -30.628,13.713 -30.628,30.628 0,16.915 13.713,30.628 30.628,30.628 16.924,0 30.628,-13.713 30.628,-30.628 0,-16.915 -13.704,-30.628 -30.628,-30.628 z m 0,43.755 c -7.246,0 -13.126,-5.881 -13.126,-13.126 0,-7.254 5.881,-13.126 13.126,-13.126 7.246,0 13.126,5.872 13.126,13.126 0,7.245 -5.88,13.126 -13.126,13.126 z"
           style="fill:#ca9f30"
           inkscape:connector-curvature="0" />
        <path
           id="path2381"
           d="m 152.239,161.011 c -8.357,7.281 -18.027,13.03 -28.624,16.942 l 103.916,102.096 h 43.754 z"
           style="fill:#ca9f30"
           inkscape:connector-curvature="0" />
      </g>
      <g
         id="g2385" />
      <g
         id="g2387" />
      <g
         id="g2389" />
      <g
         id="g2391" />
      <g
         id="g2393" />
      <g
         id="g2395" />
      <g
         id="g2397" />
      <g
         id="g2399" />
      <g
         id="g2401" />
      <g
         id="g2403" />
      <g
         id="g2405" />
      <g
         id="g2407" />
      <g
         id="g2409" />
      <g
         id="g2411" />
      <g
         id="g2413" />
    </g>
  </g>
</svg>
