<?xml version="1.0" encoding="UTF-8" standalone="no"?>
<!-- Created with Inkscape (http://www.inkscape.org/) -->

<svg
   xmlns:dc="http://purl.org/dc/elements/1.1/"
   xmlns:cc="http://creativecommons.org/ns#"
   xmlns:rdf="http://www.w3.org/1999/02/22-rdf-syntax-ns#"
   xmlns:svg="http://www.w3.org/2000/svg"
   xmlns="http://www.w3.org/2000/svg"
   xmlns:sodipodi="http://sodipodi.sourceforge.net/DTD/sodipodi-0.dtd"
   xmlns:inkscape="http://www.inkscape.org/namespaces/inkscape"
   width="900"
   height="650"
   viewBox="0 0 238.12501 171.97917"
   version="1.1"
   id="svg8"
   inkscape:version="0.92.2 5c3e80d, 2017-08-06"
   sodipodi:docname="transfer.svg">
  <defs
     id="defs2" />
  <sodipodi:namedview
     id="base"
     pagecolor="#ffffff"
     bordercolor="#666666"
     borderopacity="1.0"
     inkscape:pageopacity="0.0"
     inkscape:pageshadow="2"
     inkscape:zoom="0.95450585"
     inkscape:cx="408.98528"
     inkscape:cy="337.79463"
     inkscape:document-units="mm"
     inkscape:current-layer="layer1"
     showgrid="false"
     units="px"
     inkscape:window-width="1920"
     inkscape:window-height="955"
     inkscape:window-x="0"
     inkscape:window-y="0"
     inkscape:window-maximized="0" />
  <metadata
     id="metadata5">
    <rdf:RDF>
      <cc:Work
         rdf:about="">
        <dc:format>image/svg+xml</dc:format>
        <dc:type
           rdf:resource="http://purl.org/dc/dcmitype/StillImage" />
        <dc:title></dc:title>
      </cc:Work>
    </rdf:RDF>
  </metadata>
  <g
     inkscape:label="Layer 1"
     inkscape:groupmode="layer"
     id="layer1"
     transform="translate(0,-125.02081)">
    <rect
       id="rect10"
       width="238.125"
       height="171.97917"
       x="0.23902856"
       y="125.37936"
       style="stroke-width:0.26458332;fill:#aa0002;fill-opacity:1" />
    <circle
       style="fill:#00961f;fill-opacity:1;stroke-width:0.52518797"
       id="path822"
       cx="117.99075"
       cy="212.48296"
       ry="68.233932"
       rx="67.464378" />
    <g
       id="g1122"
       transform="matrix(0.1927489,0,0,0.1927489,70.975562,162.75276)" />
    <ellipse
       style="opacity:0;fill:#00961f;fill-opacity:1;stroke-width:0.26458332"
       id="path1822"
       cx="132.11252"
       cy="176.71228"
       rx="6.2664266"
       ry="4.1724286" />
    <circle
       style="opacity:1;fill:#00961f;fill-opacity:1;stroke-width:0.47382578"
       id="path1830"
       cx="122.10094"
       cy="210.6572"
       r="72.760414" />
    <g
       id="g2273"
       transform="matrix(0.22899317,0,0,0.22899317,62.547601,152.25489)">
      <g
         id="g2140">
        <path
           id="path2134"
           d="m 327.092,356.644 c 9.251,0.025 16.749,7.523 16.774,16.774 -0.067,9.234 -7.54,16.707 -16.774,16.774 h -33.548 v -33.548 z"
           style="fill:#ffd173"
           inkscape:connector-curvature="0" />
        <path
           id="path2136"
           d="m 327.092,323.096 c 9.251,0.025 16.749,7.523 16.774,16.774 -0.067,9.234 -7.54,16.707 -16.774,16.774 h -33.548 v -33.548 z"
           style="fill:#ffd173"
           inkscape:connector-curvature="0" />
        <path
           id="path2138"
           d="m 327.092,390.192 c 9.234,-0.067 16.707,-7.54 16.774,-16.774 -0.025,-9.251 -7.523,-16.749 -16.774,-16.774 9.234,-0.067 16.707,-7.54 16.774,-16.774 -0.025,-9.251 -7.523,-16.749 -16.774,-16.774 h -33.548 v 67.096 z M 310.318,281.161 c 41.683,0.218 75.307,34.185 75.089,75.869 -0.193,38.178 -28.868,70.191 -66.786,74.594 -2.751,0.335 -5.527,0.503 -8.303,0.503 -29.472,0.025 -56.26,-17.101 -68.605,-43.864 l 3.523,-0.755 2.684,-40.761 h -12.413 c 4.939,-37.54 36.944,-65.603 74.811,-65.586 z"
           style="fill:#ffd173"
           inkscape:connector-curvature="0" />
      </g>
      <path
         id="path2142"
         d="m 310.318,432.127 c 2.776,0 5.552,-0.168 8.303,-0.503 l 0.084,0.503 -92.257,67.096 L 83.87,465.674 0,400.441 V 289.548 h 67.767 l 46.799,48.98 89.825,8.219 h 43.528 l -2.684,40.761 -3.523,0.755 c 12.346,26.754 39.134,43.88 68.606,43.864 z"
         style="fill:#f5d0c7"
         inkscape:connector-curvature="0" />
      <path
         id="path2144"
         d="m 269.893,123.729 -3.523,0.755 -2.684,40.761 h 12.413 c -5.443,41.331 -43.352,70.425 -84.683,64.991 -41.331,-5.434 -70.425,-43.352 -64.991,-84.683 4.537,-34.462 32.013,-61.368 66.559,-65.175 2.751,-0.335 5.527,-0.503 8.303,-0.503 29.472,-0.027 56.26,17.099 68.606,43.854 z"
         style="fill:#ffd173"
         inkscape:connector-curvature="0" />
      <g
         id="g2150">
        <path
           id="path2146"
           d="m 16.774,402.864 70.794,55.061 137.06,32.256 89.145,-64.84 9.863,13.57 -92.257,67.096 c -1.434,1.04 -3.162,1.602 -4.932,1.602 -0.646,0 -1.292,-0.075 -1.921,-0.218 L 81.949,473.843 c -1.174,-0.285 -2.273,-0.814 -3.229,-1.552 L 3.237,413.583 C 1.199,411.989 0,409.549 0,406.966 v -16.774 z"
           style="fill:#edb4a5"
           inkscape:connector-curvature="0" />
        <path
           id="path2148"
           d="m 218.061,457.287 c -1.065,0 -2.13,-0.201 -3.12,-0.595 l -41.935,-16.774 6.24,-15.583 38.438,15.34 46.967,-23.484 7.498,15.013 -50.322,25.161 c -1.166,0.595 -2.457,0.906 -3.766,0.922 z"
           style="fill:#edb4a5"
           inkscape:connector-curvature="0" />
      </g>
      <g
         id="g2168">
        <path
           id="path2152"
           d="M 310.318,440.514 C 277.6,440.447 247.885,421.442 234.097,391.777 l 15.231,-7.037 c 15.449,33.758 55.337,48.603 89.095,33.154 33.758,-15.449 48.603,-55.337 33.154,-89.095 -15.449,-33.758 -55.337,-48.603 -89.095,-33.154 -20.993,9.611 -35.586,29.312 -38.656,52.192 l -16.64,-2.181 c 6.047,-45.927 48.175,-78.251 94.102,-72.204 45.927,6.047 78.251,48.175 72.204,94.102 -5.041,38.287 -35.569,68.178 -73.948,72.413 -3.061,0.362 -6.139,0.547 -9.226,0.547 z"
           style="fill:#fe7c26"
           inkscape:connector-curvature="0" />
        <path
           id="path2154"
           d="m 327.092,365.031 v -16.774 c 2.189,0.017 4.286,-0.855 5.821,-2.407 1.644,-1.552 2.575,-3.715 2.566,-5.98 0,-4.63 -3.757,-8.387 -8.387,-8.387 h -25.161 v 25.161 h -16.774 v -33.548 c 0,-4.63 3.757,-8.387 8.387,-8.387 h 33.548 c 13.897,0 25.161,11.264 25.161,25.161 -0.067,13.863 -11.297,25.085 -25.161,25.161 z"
           style="fill:#fe7c26"
           inkscape:connector-curvature="0" />
        <path
           id="path2156"
           d="m 327.092,398.579 h -33.548 c -4.63,0 -8.387,-3.757 -8.387,-8.387 v -33.548 c 0,-4.63 3.757,-8.387 8.387,-8.387 h 33.548 c 13.897,0 25.161,11.264 25.161,25.161 -0.067,13.863 -11.297,25.085 -25.161,25.161 z m -25.161,-16.774 h 25.161 c 2.189,0.017 4.286,-0.855 5.821,-2.407 1.644,-1.552 2.575,-3.715 2.566,-5.98 0,-4.63 -3.757,-8.387 -8.387,-8.387 h -25.161 z"
           style="fill:#fe7c26"
           inkscape:connector-curvature="0" />
        <path
           id="path2158"
           d="m 301.931,406.966 h -16.774 v -8.387 h -8.387 v -16.774 h 16.774 c 4.63,0 8.387,3.757 8.387,8.387 z"
           style="fill:#fe7c26"
           inkscape:connector-curvature="0" />
        <path
           id="path2160"
           d="M 293.544,331.483 H 276.77 v -16.774 h 8.387 v -8.387 h 16.774 v 16.774 c 0,4.629 -3.757,8.387 -8.387,8.387 z"
           style="fill:#fe7c26"
           inkscape:connector-curvature="0" />
        <rect
           id="rect2162"
           height="16.774"
           width="16.774"
           style="fill:#fe7c26"
           y="306.32199"
           x="318.70499" />
        <rect
           id="rect2164"
           height="16.774"
           width="16.774"
           style="fill:#fe7c26"
           y="390.19199"
           x="318.70499" />
        <path
           id="path2166"
           d="m 234.835,140.419 v -2.264 c -1.082,-13.277 -11.851,-23.685 -25.161,-24.322 v -8.806 H 192.9 v 8.815 c -13.31,0.637 -24.079,11.046 -25.161,24.322 0.067,6.458 2.927,12.572 7.833,16.774 4.823,4.185 10.777,6.852 17.109,7.666 l 14.769,2.181 c 6.643,0.973 10.61,4.747 10.61,7.817 -0.26,1.963 -1.367,3.715 -3.019,4.797 -3.17,2.122 -6.919,3.212 -10.735,3.12 h -6.039 c -7.884,0 -13.755,-4.193 -13.755,-7.968 v -2.264 H 167.74 v 2.264 c 1.082,13.277 11.851,23.685 25.161,24.322 v 8.806 h 16.774 v -8.781 c 5.527,-0.73 10.786,-2.81 15.323,-6.047 6.005,-4.185 9.662,-10.979 9.838,-18.3 -1.124,-13.184 -11.733,-23.559 -24.943,-24.398 l -14.778,-2.181 c -3.086,-0.344 -6.005,-1.585 -8.387,-3.573 -1.3,-1.023 -2.105,-2.541 -2.239,-4.193 0,-3.757 5.871,-7.968 13.755,-7.968 h 6.039 c 7.867,0 13.755,4.193 13.755,7.968 v 2.264 z"
           style="fill:#fe7c26"
           inkscape:connector-curvature="0" />
      </g>
      <path
         id="path2170"
         d="m 0,297.935 v -8.387 c 0,-4.63 3.757,-8.387 8.387,-8.387 h 59.38 c 2.29,0 4.479,0.939 6.064,2.6 l 44.636,46.699 86.688,7.934 h 42.774 c 4.63,-0.008 8.395,3.741 8.404,8.37 0,0.193 -0.008,0.377 -0.017,0.57 l -2.684,40.752 c -0.243,3.741 -2.952,6.869 -6.617,7.649 l -3.523,0.755 -37.431,7.498 c -1.149,0.235 -2.332,0.235 -3.481,0 l -46.128,-10.341 -43.101,5.2 -2.004,-16.657 44.535,-5.376 c 0.948,-0.109 1.904,-0.059 2.835,0.151 l 45.818,10.266 32.793,-6.567 1.677,-25.454 h -34.613 l -90.579,-8.253 c -2.021,-0.193 -3.9,-1.099 -5.301,-2.566 L 64.178,297.936 H 0 Z"
         style="fill:#edb4a5"
         inkscape:connector-curvature="0" />
      <path
         id="path2172"
         d="m 201.682,79.873 c -2.776,0 -5.552,0.168 -8.303,0.503 L 193.295,79.873 285.552,12.777 428.13,46.325 512,111.559 v 110.893 h -67.767 l -46.799,-48.98 -89.825,-8.219 h -43.528 l 2.684,-40.761 3.523,-0.755 C 257.942,96.974 231.154,79.848 201.682,79.873 Z"
         style="fill:#f5d0c7"
         inkscape:connector-curvature="0" />
      <g
         id="g2178">
        <path
           id="path2174"
           d="M 495.226,109.136 424.423,54.075 287.371,21.819 198.226,86.659 188.355,73.089 280.612,5.993 c 1.434,-1.04 3.162,-1.602 4.94,-1.602 0.646,0 1.292,0.075 1.921,0.218 l 142.579,33.548 c 1.174,0.277 2.273,0.805 3.221,1.552 l 75.483,58.709 c 2.046,1.585 3.246,4.026 3.246,6.617 v 16.774 z"
           style="fill:#edb4a5"
           inkscape:connector-curvature="0" />
        <path
           id="path2176"
           d="m 293.939,54.712 c 1.065,0 2.122,0.201 3.112,0.595 l 41.935,16.774 -6.232,15.583 -38.438,-15.34 -46.967,23.484 -7.506,-15.013 50.322,-25.161 c 1.165,-0.603 2.457,-0.913 3.774,-0.922 z"
           style="fill:#edb4a5"
           inkscape:connector-curvature="0" />
      </g>
      <path
         id="path2180"
         d="m 201.288,239.226 c -46.321,-0.176 -83.727,-37.867 -83.551,-84.189 0.159,-42.505 32.097,-78.175 74.325,-83.006 3.061,-0.369 6.139,-0.545 9.226,-0.545 32.718,0.067 62.433,19.072 76.221,48.737 l -15.231,7.037 C 246.829,93.502 206.941,78.657 173.183,94.106 c -33.758,15.449 -48.603,55.337 -33.154,89.095 15.449,33.758 55.337,48.603 89.095,33.154 20.993,-9.611 35.586,-29.312 38.656,-52.192 l 16.64,2.181 c -5.586,41.657 -41.097,72.79 -83.132,72.882 z"
         style="fill:#fe7c26"
         inkscape:connector-curvature="0" />
      <path
         id="path2182"
         d="m 512,214.065 v 8.387 c 0,4.63 -3.757,8.387 -8.387,8.387 h -59.38 c -2.298,0 -4.487,-0.939 -6.072,-2.6 l -44.627,-46.699 -86.696,-7.934 h -42.774 c -4.63,0.008 -8.395,-3.741 -8.404,-8.37 0,-0.193 0.008,-0.377 0.017,-0.57 l 2.675,-40.752 c 0.243,-3.741 2.952,-6.869 6.617,-7.649 l 3.531,-0.755 37.423,-7.498 c 1.149,-0.226 2.332,-0.21 3.481,0.042 l 46.204,10.4 43.109,-5.2 2.004,16.657 -44.535,5.376 c -0.948,0.117 -1.904,0.059 -2.835,-0.151 l -45.818,-10.266 -32.801,6.567 -1.677,25.454 h 34.571 l 90.579,8.253 c 2.021,0.193 3.9,1.099 5.301,2.566 l 44.308,46.355 z"
         style="fill:#edb4a5"
         inkscape:connector-curvature="0" />
      <path
         id="path2184"
         d="M 429.657,38.157 287.078,4.609 c -2.374,-0.545 -4.873,-0.042 -6.852,1.384 l -91.519,66.542 c -45.768,6.97 -77.211,49.726 -70.241,95.486 6.97,45.76 49.726,77.211 95.486,70.241 34.177,-5.208 61.644,-30.856 69.184,-64.597 h 23.333 l 86.696,7.875 44.635,46.699 c 1.585,1.661 3.774,2.6 6.064,2.6 h 59.355 V 214.065 H 447.412 L 403.12,167.668 c -1.401,-1.468 -3.279,-2.382 -5.301,-2.566 l -90.579,-8.194 h -34.605 l 1.677,-25.488 32.793,-6.559 45.785,10.224 c 0.923,0.21 1.879,0.26 2.818,0.151 l 44.543,-5.309 -1.988,-16.665 -43.117,5.141 -46.128,-10.299 c -1.149,-0.252 -2.332,-0.252 -3.481,0 l -31.367,6.273 C 269.339,105.713 263.015,97.98 255.492,91.522 l 38.429,-19.198 38.438,15.373 6.24,-15.583 -41.935,-16.774 c -2.223,-0.881 -4.722,-0.78 -6.869,0.285 l -50.322,25.161 0.117,0.243 c -7.255,-3.757 -15.029,-6.433 -23.064,-7.934 l 70.451,-51.244 137.06,32.223 74.032,57.577 10.299,-13.235 -75.483,-58.709 c -0.956,-0.745 -2.054,-1.274 -3.228,-1.55 z M 258.78,121.02 c -0.419,0.906 -0.671,1.879 -0.746,2.877 l -2.726,40.836 c -0.31,4.621 3.187,8.622 7.808,8.932 0.193,0.017 0.386,0.017 0.579,0.017 h 2.114 c -10.039,35.745 -47.16,56.587 -82.905,46.539 -35.745,-10.048 -56.587,-47.16 -46.539,-82.905 10.048,-35.745 47.16,-56.587 82.905,-46.539 16.564,4.655 30.713,15.482 39.536,30.252 z"
         inkscape:connector-curvature="0" />
      <path
         id="path2186"
         d="m 192.901,105.034 v 8.815 c -13.302,0.637 -24.071,11.046 -25.161,24.322 1.157,13.168 11.75,23.517 24.943,24.364 l 14.753,2.181 c 6.651,0.981 10.626,4.73 10.626,7.775 0,3.774 -5.871,8.001 -13.738,8.001 h -6.072 c -7.867,0.025 -13.738,-4.168 -13.738,-7.984 v -2.256 H 167.74 v 2.256 c 1.09,13.277 11.859,23.685 25.161,24.322 v 8.84 h 16.774 v -8.815 c 13.302,-0.637 24.071,-11.046 25.161,-24.322 -1.157,-13.168 -11.75,-23.517 -24.943,-24.364 l -14.753,-2.181 c -6.651,-0.981 -10.626,-4.722 -10.626,-7.775 0,-3.774 5.871,-8.001 13.738,-8.001 h 6.072 c 7.867,0 13.738,4.193 13.738,8.001 v 2.256 h 16.774 v -2.256 c -1.09,-13.277 -11.859,-23.685 -25.161,-24.322 v -8.865 h -16.774 z"
         inkscape:connector-curvature="0" />
      <path
         id="path2188"
         d="m 310.318,272.774 c -39.234,0.084 -73.202,27.291 -81.849,65.561 H 205.136 L 118.44,330.476 73.846,283.761 c -1.585,-1.661 -3.774,-2.6 -6.064,-2.6 H 8.387 v 16.774 h 55.807 l 44.292,46.397 c 1.401,1.468 3.279,2.382 5.301,2.566 l 90.579,8.194 h 34.588 l -1.677,25.488 -32.793,6.559 -45.785,-10.224 c -0.923,-0.21 -1.879,-0.268 -2.818,-0.151 l -44.543,5.309 1.988,16.665 43.117,-5.141 46.128,10.299 c 0.604,0.134 1.216,0.201 1.837,0.201 0.562,0 1.124,-0.05 1.677,-0.159 l 31.367,-6.273 c 4.831,8.664 11.155,16.397 18.678,22.855 l -38.446,19.156 -38.438,-15.373 -6.24,15.583 41.935,16.774 c 2.223,0.881 4.722,0.78 6.869,-0.285 l 50.322,-25.161 -0.117,-0.243 c 7.255,3.757 15.029,6.433 23.064,7.934 L 224.628,490.149 87.568,457.926 13.536,400.349 3.237,413.583 78.72,472.292 c 0.956,0.738 2.055,1.266 3.229,1.552 l 142.579,33.548 c 0.629,0.143 1.275,0.218 1.921,0.218 1.77,0 3.497,-0.562 4.932,-1.602 L 322.9,439.466 c 45.776,-6.877 77.303,-49.567 70.425,-95.335 -6.174,-41.072 -41.483,-71.424 -83.007,-71.357 z m 0,150.966 c -23.584,-0.084 -45.399,-12.513 -57.493,-32.76 0.419,-0.906 0.671,-1.879 0.746,-2.877 l 2.726,-40.836 c 0.31,-4.621 -3.187,-8.622 -7.808,-8.932 -0.193,-0.017 -0.386,-0.017 -0.579,-0.017 h -2.088 c 10.123,-35.645 47.227,-56.344 82.872,-46.221 35.645,10.123 56.344,47.227 46.221,82.872 -8.203,28.868 -34.58,48.787 -64.597,48.771 z"
         inkscape:connector-curvature="0" />
      <path
         id="path2190"
         d="m 335.479,316.252 v -9.93 h -16.774 v 8.387 h -16.774 v -8.387 h -16.774 v 8.387 h -8.387 v 16.774 h 8.387 v 50.322 h -8.387 v 16.774 h 8.387 v 8.387 h 16.774 v -8.387 h 16.774 v 8.387 h 16.774 v -9.93 c 13.008,-4.504 19.911,-18.695 15.407,-31.703 -1.115,-3.221 -2.877,-6.173 -5.175,-8.689 9.301,-10.148 8.605,-25.916 -1.543,-35.217 -2.516,-2.307 -5.468,-4.068 -8.689,-5.175 z m -8.387,65.553 h -25.161 v -16.774 h 25.161 c 4.63,0 8.387,3.757 8.387,8.387 0,4.629 -3.757,8.387 -8.387,8.387 z m 0,-33.548 h -25.161 v -16.774 h 25.161 c 4.63,0 8.387,3.757 8.387,8.387 0,4.629 -3.757,8.387 -8.387,8.387 z"
         inkscape:connector-curvature="0" />
      <g
         id="g2192" />
      <g
         id="g2194" />
      <g
         id="g2196" />
      <g
         id="g2198" />
      <g
         id="g2200" />
      <g
         id="g2202" />
      <g
         id="g2204" />
      <g
         id="g2206" />
      <g
         id="g2208" />
      <g
         id="g2210" />
      <g
         id="g2212" />
      <g
         id="g2214" />
      <g
         id="g2216" />
      <g
         id="g2218" />
      <g
         id="g2220" />
    </g>
  </g>
</svg>
