<?xml version="1.0" encoding="iso-8859-1"?>
<!-- Generator: Adobe Illustrator 19.0.0, SVG Export Plug-In . SVG Version: 6.00 Build 0)  -->
<svg version="1.1" id="Capa_1" xmlns="http://www.w3.org/2000/svg" xmlns:xlink="http://www.w3.org/1999/xlink" x="0px" y="0px"
	 viewBox="0 0 512 512" style="enable-background:new 0 0 512 512;" xml:space="preserve">
<path style="fill:#7C8287;" d="M380.942,124.942v50.564c0,8.268-6.71,14.977-14.977,14.977h-44.643
	c-8.268,0-14.977-6.71-14.977-14.977v-51.103c0-27.698-22.466-50.234-50.125-50.354H256c-27.758,0-50.354,22.586-50.354,50.354
	v110.015h-74.588V124.942C131.058,56.046,187.104,0,256,0h0.22C325.016,0.12,380.942,56.116,380.942,124.942z"/>
<path style="fill:#FFB64C;" d="M420.543,254.198v188.986c0,37.943-30.874,68.817-68.816,68.817H160.264
	c-37.943,0-68.807-30.874-68.807-68.816V254.198c0-19.161,15.597-34.758,34.758-34.758h259.56
	C404.946,219.44,420.543,235.037,420.543,254.198z"/>
<path style="fill:#FF9F00;" d="M420.543,254.198v188.986c0,37.943-30.874,68.817-68.816,68.817H256.22V219.44h129.555
	C404.946,219.44,420.543,235.037,420.543,254.198z"/>
<path style="fill:#FF7D43;" d="M299.055,345.161c0,18.472-11.702,34.258-28.078,40.359v24.883c0,8.198-6.59,14.858-14.758,14.967
	c-0.07,0.01-0.15,0.01-0.22,0.01c-8.278,0-14.977-6.71-14.977-14.977V385.52c-16.375-6.101-28.078-21.887-28.078-40.359
	c0-23.734,19.311-43.055,43.055-43.055h0.22C279.854,302.225,299.055,321.496,299.055,345.161z"/>
<path style="fill:#FF641A;" d="M299.055,345.161c0,18.472-11.702,34.258-28.078,40.359v24.883c0,8.198-6.59,14.858-14.758,14.967
	V302.106C279.854,302.225,299.055,321.496,299.055,345.161z"/>
<path style="fill:#596C76;" d="M380.942,124.942v50.564c0,8.268-6.71,14.977-14.977,14.977h-44.643
	c-8.268,0-14.977-6.71-14.977-14.977v-51.103c0-27.698-22.466-50.234-50.125-50.354V0C325.016,0.12,380.942,56.116,380.942,124.942z
	"/>
<g>
</g>
<g>
</g>
<g>
</g>
<g>
</g>
<g>
</g>
<g>
</g>
<g>
</g>
<g>
</g>
<g>
</g>
<g>
</g>
<g>
</g>
<g>
</g>
<g>
</g>
<g>
</g>
<g>
</g>
</svg>
