<?xml version="1.0" encoding="iso-8859-1"?>
<!-- Generator: Adobe Illustrator 19.0.0, SVG Export Plug-In . SVG Version: 6.00 Build 0)  -->
<svg version="1.1" id="Layer_1" xmlns="http://www.w3.org/2000/svg" xmlns:xlink="http://www.w3.org/1999/xlink" x="0px" y="0px"
	 viewBox="0 0 417.121 417.121" style="enable-background:new 0 0 417.121 417.121;" xml:space="preserve">
<g>
	<g>
		<g>
			<g id="XMLID_22_">
				<g>
					<path style="fill:#FCD09F;" d="M176.506,0c46.66,0,84.49,37.82,84.49,84.48c0,46.67-37.83,110.49-84.49,110.49
						s-84.49-63.82-84.49-110.49C92.016,37.82,129.846,0,176.506,0z"/>
				</g>
			</g>
		</g>
		<path style="fill:#B3B3B3;" d="M385.055,289.278l-59.56,59.56l-21.92-21.93l63.43-63.43
			C374.715,271.178,380.725,279.938,385.055,289.278z"/>
		<path style="fill:#F2F2F2;" d="M341.215,245.438c9.34,4.33,18.09,10.34,25.79,18.04l-63.43,63.43l-21.92-21.92L341.215,245.438z"
			/>
		<polygon style="fill:#FFFFFF;" points="325.495,348.838 293.255,359.328 260.515,369.978 271.165,337.238 281.655,304.988 
			303.575,326.908 		"/>
		<path style="fill:#EF806F;" d="M385.055,289.278c15.41,33.28,9.39,74.04-18.05,101.48c-35.15,35.15-92.13,35.15-127.28,0
			c-35.14-35.15-35.14-92.13,0-127.28c27.45-27.45,68.21-33.46,101.49-18.04l-59.56,59.55l-21.14,64.99l64.98-21.14L385.055,289.278
			z"/>
		<path style="fill:#808080;" d="M293.255,359.328l-32.74,10.65l10.65-32.74C281.605,340.628,289.865,348.888,293.255,359.328z"/>
	</g>
	<path style="fill:#1EA6C6;" d="M199.365,327.118c0,21.69,6.67,41.85,18.09,58.54c-13.28,2.42-26.97,3.68-40.95,3.68
		c-58.79,0-112.38-22.3-152.75-58.91v-0.13c0-60.89,35.63-113.45,87.17-137.98c19.37,19.32,42.05,29.73,65.58,29.73
		c23.54,0,46.21-10.41,65.59-29.73c16.76,7.98,31.84,18.92,44.54,32.15C237.215,232.488,199.365,275.468,199.365,327.118z"/>
</g>
<g>
</g>
<g>
</g>
<g>
</g>
<g>
</g>
<g>
</g>
<g>
</g>
<g>
</g>
<g>
</g>
<g>
</g>
<g>
</g>
<g>
</g>
<g>
</g>
<g>
</g>
<g>
</g>
<g>
</g>
</svg>
